<svg width="37" height="37" viewBox="0 0 37 37" fill="none" xmlns="http://www.w3.org/2000/svg">
<circle opacity="0.5" cx="18.1452" cy="18.1452" r="18.1452" fill="#F246F5"/>
<path d="M14.1405 25.5289C14.1405 25.629 14.0284 25.709 13.8869 25.709C13.7259 25.7241 13.6137 25.644 13.6137 25.5289C13.6137 25.4289 13.7259 25.3489 13.8674 25.3489C14.0137 25.3338 14.1405 25.4139 14.1405 25.5289ZM12.6236 25.3038C12.5894 25.4039 12.687 25.5189 12.8333 25.549C12.9601 25.599 13.1065 25.549 13.1357 25.4489C13.165 25.3489 13.0723 25.2338 12.926 25.1888C12.7992 25.1537 12.6577 25.2038 12.6236 25.3038ZM14.7795 25.2188C14.6381 25.2538 14.5405 25.3489 14.5551 25.4639C14.5698 25.564 14.6966 25.629 14.8429 25.594C14.9844 25.559 15.0819 25.4639 15.0673 25.3639C15.0527 25.2688 14.921 25.2038 14.7795 25.2188ZM17.9891 6.04834C11.2237 6.04834 6.04839 11.3162 6.04839 18.255C6.04839 23.803 9.45304 28.5506 14.3161 30.2215C14.9405 30.3366 15.16 29.9414 15.16 29.6162C15.16 29.306 15.1454 27.5951 15.1454 26.5445C15.1454 26.5445 11.7309 27.2949 11.0139 25.0537C11.0139 25.0537 10.4579 23.5979 9.65791 23.2227C9.65791 23.2227 8.54091 22.4373 9.73595 22.4523C9.73595 22.4523 10.9505 22.5523 11.6188 23.743C12.687 25.674 14.4771 25.1187 15.1746 24.7885C15.2868 23.9881 15.6039 23.4328 15.9551 23.1026C13.2284 22.7925 10.4774 22.3872 10.4774 17.5746C10.4774 16.1989 10.8481 15.5085 11.6285 14.628C11.5017 14.3028 11.0871 12.9621 11.7553 11.2312C12.7748 10.906 15.121 12.5819 15.121 12.5819C16.0965 12.3017 17.1452 12.1567 18.1842 12.1567C19.2231 12.1567 20.2719 12.3017 21.2474 12.5819C21.2474 12.5819 23.5936 10.901 24.613 11.2312C25.2813 12.9671 24.8667 14.3028 24.7399 14.628C25.5203 15.5135 25.9983 16.2039 25.9983 17.5746C25.9983 22.4022 23.1253 22.7875 20.3987 23.1026C20.8474 23.4978 21.2279 24.2483 21.2279 25.4239C21.2279 27.1098 21.2133 29.1959 21.2133 29.6062C21.2133 29.9313 21.4376 30.3266 22.0571 30.2115C26.9348 28.5506 30.2419 23.803 30.2419 18.255C30.2419 11.3162 24.7545 6.04834 17.9891 6.04834ZM10.7895 23.3027C10.7261 23.3528 10.7408 23.4678 10.8237 23.5629C10.9017 23.6429 11.0139 23.6779 11.0773 23.6129C11.1407 23.5629 11.1261 23.4478 11.0432 23.3528C10.9651 23.2727 10.853 23.2377 10.7895 23.3027ZM10.2627 22.8975C10.2286 22.9626 10.2774 23.0426 10.3749 23.0926C10.453 23.1427 10.5505 23.1276 10.5847 23.0576C10.6188 22.9926 10.57 22.9125 10.4725 22.8625C10.3749 22.8325 10.2969 22.8475 10.2627 22.8975ZM11.8431 24.6785C11.7651 24.7435 11.7944 24.8936 11.9065 24.9887C12.0187 25.1037 12.1602 25.1187 12.2236 25.0387C12.287 24.9736 12.2577 24.8236 12.1602 24.7285C12.0529 24.6134 11.9065 24.5984 11.8431 24.6785ZM11.2871 23.9431C11.209 23.9931 11.209 24.1232 11.2871 24.2382C11.3651 24.3533 11.4968 24.4033 11.5602 24.3533C11.6383 24.2883 11.6383 24.1582 11.5602 24.0431C11.4919 23.9281 11.3651 23.878 11.2871 23.9431Z" fill="#212121"/>
</svg>
