<svg width="37" height="37" viewBox="0 0 37 37" fill="none" xmlns="http://www.w3.org/2000/svg">
<circle cx="18.4677" cy="18.1452" r="18.1452" fill="#F246F5"/>
<path d="M18.4704 11.9422C15.0377 11.9422 12.2689 14.7116 12.2689 18.1451C12.2689 21.5786 15.0377 24.348 18.4704 24.348C21.9031 24.348 24.672 21.5786 24.672 18.1451C24.672 14.7116 21.9031 11.9422 18.4704 11.9422ZM18.4704 22.1778C16.2521 22.1778 14.4386 20.3693 14.4386 18.1451C14.4386 15.9209 16.2467 14.1124 18.4704 14.1124C20.6941 14.1124 22.5023 15.9209 22.5023 18.1451C22.5023 20.3693 20.6887 22.1778 18.4704 22.1778ZM26.3721 11.6885C26.3721 12.4928 25.7245 13.1353 24.9257 13.1353C24.1215 13.1353 23.4792 12.4874 23.4792 11.6885C23.4792 10.8895 24.1269 10.2417 24.9257 10.2417C25.7245 10.2417 26.3721 10.8895 26.3721 11.6885ZM30.4795 13.1569C30.3878 11.2188 29.9452 9.50205 28.5257 8.08764C27.1116 6.67322 25.3952 6.23054 23.4576 6.13337C21.4606 6.02 15.4749 6.02 13.4779 6.13337C11.5457 6.22514 9.82931 6.66782 8.40981 8.08224C6.99032 9.49666 6.55313 11.2134 6.45598 13.1515C6.34264 15.1489 6.34264 21.1359 6.45598 23.1334C6.54773 25.0714 6.99032 26.7882 8.40981 28.2026C9.82931 29.617 11.5403 30.0597 13.4779 30.1569C15.4749 30.2702 21.4606 30.2702 23.4576 30.1569C25.3952 30.0651 27.1116 29.6224 28.5257 28.2026C29.9398 26.7882 30.3824 25.0714 30.4795 23.1334C30.5929 21.1359 30.5929 15.1543 30.4795 13.1569ZM27.8996 25.2766C27.4786 26.3347 26.6636 27.1499 25.6003 27.5764C24.0081 28.208 20.23 28.0622 18.4704 28.0622C16.7109 28.0622 12.9274 28.2026 11.3406 27.5764C10.2827 27.1553 9.46769 26.3401 9.0413 25.2766C8.40981 23.684 8.55554 19.905 8.55554 18.1451C8.55554 16.3852 8.41521 12.6008 9.0413 11.0136C9.46229 9.95553 10.2773 9.14035 11.3406 8.71387C12.9328 8.08224 16.7109 8.228 18.4704 8.228C20.23 8.228 24.0135 8.08764 25.6003 8.71387C26.6582 9.13495 27.4732 9.95013 27.8996 11.0136C28.5311 12.6062 28.3853 16.3852 28.3853 18.1451C28.3853 19.905 28.5311 23.6894 27.8996 25.2766Z" fill="#212121"/>
</svg>
