<svg width="150" height="150" viewBox="0 0 150 150" fill="none" xmlns="http://www.w3.org/2000/svg">
<circle cx="75" cy="75" r="74.5" stroke="#ACFFFF"/>
<path d="M67.2622 49.1582H51.0902V34.8213H82.279V68.4641C82.279 73.5146 81.2614 77.8863 79.2261 81.5791C77.1909 85.2176 74.3856 87.9873 70.8101 89.888C67.2897 91.7887 63.3567 92.7391 59.0112 92.7391C54.8307 92.7391 50.9527 91.7073 47.3773 89.6436C43.8569 87.58 41.0515 84.8103 38.9613 81.3347C36.871 77.8048 35.8259 73.9762 35.8259 69.8489H50.8427C50.8427 72.347 51.5578 74.4378 52.988 76.1213C54.4731 77.8048 56.4534 78.6466 58.9287 78.6466C61.569 78.6466 63.6043 77.832 65.0344 76.2028C66.5196 74.5193 67.2622 72.0755 67.2622 68.8714V49.1582Z" fill="#ACFFFF"/>
<path d="M90.654 115.178C86.7485 115.178 83.1181 114.31 79.7627 112.572C76.4073 110.78 73.6569 108.336 71.5117 105.24C69.3664 102.145 68.1013 98.7236 67.7162 94.9764H70.7691C71.1541 98.1805 72.2818 101.113 74.152 103.774C76.0222 106.381 78.3875 108.444 81.2479 109.965C84.1632 111.431 87.2986 112.164 90.654 112.164C94.3394 112.164 97.7224 111.268 100.803 109.476C103.883 107.684 106.331 105.213 108.146 102.063C109.961 98.9137 110.869 95.3837 110.869 91.4736V60.2745H85.1258V57.2605H113.839V91.4736C113.839 95.9267 112.794 99.9726 110.704 103.611C108.669 107.195 105.863 110.019 102.288 112.083C98.7675 114.147 94.8895 115.178 90.654 115.178Z" fill="#ACFFFF"/>
</svg>
