<svg width="37" height="37" viewBox="0 0 37 37" fill="none" xmlns="http://www.w3.org/2000/svg">
<circle opacity="0.5" cx="18.1452" cy="18.1452" r="18.1452" fill="#F246F5"/>
<path d="M11.9245 28H7.36339V13.3117H11.9245V28ZM9.64147 11.3081C8.18299 11.3081 7 10.1 7 8.64153C7 7.94095 7.2783 7.26907 7.77367 6.77369C8.26904 6.2783 8.94091 6 9.64147 6C10.342 6 11.0139 6.2783 11.5093 6.77369C12.0046 7.26907 12.2829 7.94095 12.2829 8.64153C12.2829 10.1 11.0995 11.3081 9.64147 11.3081ZM28.9951 28H24.4438V20.8498C24.4438 19.1458 24.4095 16.9605 22.0725 16.9605C19.7011 16.9605 19.3377 18.8118 19.3377 20.7271V28H14.7815V13.3117H19.156V15.3153H19.2198C19.8287 14.1613 21.3162 12.9434 23.5354 12.9434C28.1514 12.9434 29 15.9832 29 19.9315V28H28.9951Z" fill="#212121"/>
</svg>
