<svg width="1441" height="455" viewBox="0 0 1441 455" fill="none" xmlns="http://www.w3.org/2000/svg">
<g opacity="0.12">
<line x1="30.0349" y1="0.646447" x2="54.3199" y2="24.9313" stroke="#7B61FF"/>
<line x1="54.3199" y1="1.35355" x2="30.0344" y2="25.639" stroke="#7B61FF"/>
</g>
<g opacity="0.12">
<line x1="30.0349" y1="122.968" x2="54.3199" y2="147.253" stroke="#7B61FF"/>
<line x1="54.3199" y1="123.675" x2="30.0344" y2="147.96" stroke="#7B61FF"/>
</g>
<g opacity="0.12">
<line x1="30.0349" y1="245.289" x2="54.3199" y2="269.574" stroke="#7B61FF"/>
<line x1="54.3199" y1="245.996" x2="30.0344" y2="270.282" stroke="#7B61FF"/>
</g>
<g opacity="0.12">
<line x1="30.0349" y1="367.61" x2="54.3199" y2="391.895" stroke="#7B61FF"/>
<line x1="54.3199" y1="368.317" x2="30.0344" y2="392.603" stroke="#7B61FF"/>
</g>
<g opacity="0.12">
<line x1="0.354042" y1="61.8071" x2="24.6389" y2="86.092" stroke="#7B61FF"/>
<line x1="24.639" y1="62.5143" x2="0.353476" y2="86.7998" stroke="#7B61FF"/>
</g>
<g opacity="0.12">
<line x1="0.354042" y1="184.129" x2="24.6389" y2="208.413" stroke="#7B61FF"/>
<line x1="24.639" y1="184.836" x2="0.353476" y2="209.121" stroke="#7B61FF"/>
</g>
<g opacity="0.12">
<line x1="0.354042" y1="306.45" x2="24.6389" y2="330.735" stroke="#7B61FF"/>
<line x1="24.639" y1="307.157" x2="0.353476" y2="331.442" stroke="#7B61FF"/>
</g>
<g opacity="0.12">
<line x1="0.354042" y1="428.771" x2="24.6389" y2="453.056" stroke="#7B61FF"/>
<line x1="24.639" y1="429.478" x2="0.353476" y2="453.764" stroke="#7B61FF"/>
</g>
<g opacity="0.12">
<line x1="90.2974" y1="0.646447" x2="114.582" y2="24.9313" stroke="#7B61FF"/>
<line x1="114.582" y1="1.35355" x2="90.2968" y2="25.639" stroke="#7B61FF"/>
</g>
<g opacity="0.12">
<line x1="90.2974" y1="122.968" x2="114.582" y2="147.253" stroke="#7B61FF"/>
<line x1="114.582" y1="123.675" x2="90.2968" y2="147.96" stroke="#7B61FF"/>
</g>
<g opacity="0.12">
<line x1="90.2974" y1="245.289" x2="114.582" y2="269.574" stroke="#7B61FF"/>
<line x1="114.582" y1="245.996" x2="90.2968" y2="270.282" stroke="#7B61FF"/>
</g>
<g opacity="0.12">
<line x1="90.2974" y1="367.61" x2="114.582" y2="391.895" stroke="#7B61FF"/>
<line x1="114.582" y1="368.317" x2="90.2968" y2="392.603" stroke="#7B61FF"/>
</g>
<g opacity="0.12">
<line x1="60.6162" y1="61.8071" x2="84.9012" y2="86.092" stroke="#7B61FF"/>
<line x1="84.9012" y1="62.5143" x2="60.6157" y2="86.7998" stroke="#7B61FF"/>
</g>
<g opacity="0.12">
<line x1="60.6162" y1="184.129" x2="84.9012" y2="208.413" stroke="#7B61FF"/>
<line x1="84.9012" y1="184.836" x2="60.6157" y2="209.121" stroke="#7B61FF"/>
</g>
<g opacity="0.12">
<line x1="60.6162" y1="306.45" x2="84.9012" y2="330.735" stroke="#7B61FF"/>
<line x1="84.9012" y1="307.157" x2="60.6157" y2="331.442" stroke="#7B61FF"/>
</g>
<g opacity="0.12">
<line x1="60.6162" y1="428.771" x2="84.9012" y2="453.056" stroke="#7B61FF"/>
<line x1="84.9012" y1="429.478" x2="60.6157" y2="453.764" stroke="#7B61FF"/>
</g>
<g opacity="0.12">
<line x1="150.56" y1="0.646447" x2="174.845" y2="24.9313" stroke="#7B61FF"/>
<line x1="174.845" y1="1.35355" x2="150.559" y2="25.639" stroke="#7B61FF"/>
</g>
<g opacity="0.12">
<line x1="150.56" y1="122.968" x2="174.845" y2="147.253" stroke="#7B61FF"/>
<line x1="174.845" y1="123.675" x2="150.559" y2="147.96" stroke="#7B61FF"/>
</g>
<g opacity="0.12">
<line x1="150.56" y1="245.289" x2="174.845" y2="269.574" stroke="#7B61FF"/>
<line x1="174.845" y1="245.996" x2="150.559" y2="270.282" stroke="#7B61FF"/>
</g>
<g opacity="0.12">
<line x1="150.56" y1="367.61" x2="174.845" y2="391.895" stroke="#7B61FF"/>
<line x1="174.845" y1="368.317" x2="150.559" y2="392.603" stroke="#7B61FF"/>
</g>
<g opacity="0.12">
<line x1="120.879" y1="61.8071" x2="145.164" y2="86.092" stroke="#7B61FF"/>
<line x1="145.164" y1="62.5143" x2="120.878" y2="86.7998" stroke="#7B61FF"/>
</g>
<g opacity="0.12">
<line x1="120.879" y1="184.129" x2="145.164" y2="208.413" stroke="#7B61FF"/>
<line x1="145.164" y1="184.836" x2="120.878" y2="209.121" stroke="#7B61FF"/>
</g>
<g opacity="0.12">
<line x1="120.879" y1="306.45" x2="145.164" y2="330.735" stroke="#7B61FF"/>
<line x1="145.164" y1="307.157" x2="120.878" y2="331.442" stroke="#7B61FF"/>
</g>
<g opacity="0.12">
<line x1="120.879" y1="428.771" x2="145.164" y2="453.056" stroke="#7B61FF"/>
<line x1="145.164" y1="429.478" x2="120.878" y2="453.764" stroke="#7B61FF"/>
</g>
<g opacity="0.12">
<line x1="210.822" y1="0.646447" x2="235.107" y2="24.9313" stroke="#7B61FF"/>
<line x1="235.107" y1="1.35355" x2="210.821" y2="25.639" stroke="#7B61FF"/>
</g>
<g opacity="0.12">
<line x1="210.822" y1="122.968" x2="235.107" y2="147.253" stroke="#7B61FF"/>
<line x1="235.107" y1="123.675" x2="210.821" y2="147.96" stroke="#7B61FF"/>
</g>
<g opacity="0.12">
<line x1="210.822" y1="245.289" x2="235.107" y2="269.574" stroke="#7B61FF"/>
<line x1="235.107" y1="245.996" x2="210.821" y2="270.282" stroke="#7B61FF"/>
</g>
<g opacity="0.12">
<line x1="210.822" y1="367.61" x2="235.107" y2="391.895" stroke="#7B61FF"/>
<line x1="235.107" y1="368.317" x2="210.821" y2="392.603" stroke="#7B61FF"/>
</g>
<g opacity="0.12">
<line x1="181.141" y1="61.8071" x2="205.426" y2="86.092" stroke="#7B61FF"/>
<line x1="205.426" y1="62.5143" x2="181.141" y2="86.7998" stroke="#7B61FF"/>
</g>
<g opacity="0.12">
<line x1="181.141" y1="184.129" x2="205.426" y2="208.413" stroke="#7B61FF"/>
<line x1="205.426" y1="184.836" x2="181.141" y2="209.121" stroke="#7B61FF"/>
</g>
<g opacity="0.12">
<line x1="181.141" y1="306.45" x2="205.426" y2="330.735" stroke="#7B61FF"/>
<line x1="205.426" y1="307.157" x2="181.141" y2="331.442" stroke="#7B61FF"/>
</g>
<g opacity="0.12">
<line x1="181.141" y1="428.771" x2="205.426" y2="453.056" stroke="#7B61FF"/>
<line x1="205.426" y1="429.478" x2="181.141" y2="453.764" stroke="#7B61FF"/>
</g>
<g opacity="0.12">
<line x1="271.084" y1="0.646447" x2="295.369" y2="24.9313" stroke="#7B61FF"/>
<line x1="295.369" y1="1.35355" x2="271.084" y2="25.639" stroke="#7B61FF"/>
</g>
<g opacity="0.12">
<line x1="271.084" y1="122.968" x2="295.369" y2="147.253" stroke="#7B61FF"/>
<line x1="295.369" y1="123.675" x2="271.084" y2="147.96" stroke="#7B61FF"/>
</g>
<g opacity="0.12">
<line x1="271.084" y1="245.289" x2="295.369" y2="269.574" stroke="#7B61FF"/>
<line x1="295.369" y1="245.996" x2="271.084" y2="270.282" stroke="#7B61FF"/>
</g>
<g opacity="0.12">
<line x1="271.084" y1="367.61" x2="295.369" y2="391.895" stroke="#7B61FF"/>
<line x1="295.369" y1="368.317" x2="271.084" y2="392.603" stroke="#7B61FF"/>
</g>
<g opacity="0.12">
<line x1="241.403" y1="61.8071" x2="265.688" y2="86.092" stroke="#7B61FF"/>
<line x1="265.688" y1="62.5143" x2="241.403" y2="86.7998" stroke="#7B61FF"/>
</g>
<g opacity="0.12">
<line x1="241.403" y1="184.129" x2="265.688" y2="208.413" stroke="#7B61FF"/>
<line x1="265.688" y1="184.836" x2="241.403" y2="209.121" stroke="#7B61FF"/>
</g>
<g opacity="0.12">
<line x1="241.403" y1="306.45" x2="265.688" y2="330.735" stroke="#7B61FF"/>
<line x1="265.688" y1="307.157" x2="241.403" y2="331.442" stroke="#7B61FF"/>
</g>
<g opacity="0.12">
<line x1="241.403" y1="428.771" x2="265.688" y2="453.056" stroke="#7B61FF"/>
<line x1="265.688" y1="429.478" x2="241.403" y2="453.764" stroke="#7B61FF"/>
</g>
<g opacity="0.12">
<line x1="331.347" y1="0.646447" x2="355.632" y2="24.9313" stroke="#7B61FF"/>
<line x1="355.632" y1="1.35355" x2="331.346" y2="25.639" stroke="#7B61FF"/>
</g>
<g opacity="0.12">
<line x1="331.347" y1="122.968" x2="355.632" y2="147.253" stroke="#7B61FF"/>
<line x1="355.632" y1="123.675" x2="331.346" y2="147.96" stroke="#7B61FF"/>
</g>
<g opacity="0.12">
<line x1="331.347" y1="245.289" x2="355.632" y2="269.574" stroke="#7B61FF"/>
<line x1="355.632" y1="245.996" x2="331.346" y2="270.282" stroke="#7B61FF"/>
</g>
<g opacity="0.12">
<line x1="331.347" y1="367.61" x2="355.632" y2="391.895" stroke="#7B61FF"/>
<line x1="355.632" y1="368.317" x2="331.346" y2="392.603" stroke="#7B61FF"/>
</g>
<g opacity="0.12">
<line x1="301.666" y1="61.8071" x2="325.951" y2="86.092" stroke="#7B61FF"/>
<line x1="325.951" y1="62.5143" x2="301.665" y2="86.7998" stroke="#7B61FF"/>
</g>
<g opacity="0.12">
<line x1="301.666" y1="184.129" x2="325.951" y2="208.413" stroke="#7B61FF"/>
<line x1="325.951" y1="184.836" x2="301.665" y2="209.121" stroke="#7B61FF"/>
</g>
<g opacity="0.12">
<line x1="301.666" y1="306.45" x2="325.951" y2="330.735" stroke="#7B61FF"/>
<line x1="325.951" y1="307.157" x2="301.665" y2="331.442" stroke="#7B61FF"/>
</g>
<g opacity="0.12">
<line x1="301.666" y1="428.771" x2="325.951" y2="453.056" stroke="#7B61FF"/>
<line x1="325.951" y1="429.478" x2="301.665" y2="453.764" stroke="#7B61FF"/>
</g>
<g opacity="0.12">
<line x1="391.609" y1="0.646447" x2="415.894" y2="24.9313" stroke="#7B61FF"/>
<line x1="415.894" y1="1.35355" x2="391.608" y2="25.639" stroke="#7B61FF"/>
</g>
<g opacity="0.12">
<line x1="391.609" y1="122.968" x2="415.894" y2="147.253" stroke="#7B61FF"/>
<line x1="415.894" y1="123.675" x2="391.608" y2="147.96" stroke="#7B61FF"/>
</g>
<g opacity="0.12">
<line x1="391.609" y1="245.289" x2="415.894" y2="269.574" stroke="#7B61FF"/>
<line x1="415.894" y1="245.996" x2="391.608" y2="270.282" stroke="#7B61FF"/>
</g>
<g opacity="0.12">
<line x1="391.609" y1="367.61" x2="415.894" y2="391.895" stroke="#7B61FF"/>
<line x1="415.894" y1="368.317" x2="391.608" y2="392.603" stroke="#7B61FF"/>
</g>
<g opacity="0.12">
<line x1="361.928" y1="61.8071" x2="386.213" y2="86.092" stroke="#7B61FF"/>
<line x1="386.213" y1="62.5143" x2="361.927" y2="86.7998" stroke="#7B61FF"/>
</g>
<g opacity="0.12">
<line x1="361.928" y1="184.129" x2="386.213" y2="208.413" stroke="#7B61FF"/>
<line x1="386.213" y1="184.836" x2="361.927" y2="209.121" stroke="#7B61FF"/>
</g>
<g opacity="0.12">
<line x1="361.928" y1="306.45" x2="386.213" y2="330.735" stroke="#7B61FF"/>
<line x1="386.213" y1="307.157" x2="361.927" y2="331.442" stroke="#7B61FF"/>
</g>
<g opacity="0.12">
<line x1="361.928" y1="428.771" x2="386.213" y2="453.056" stroke="#7B61FF"/>
<line x1="386.213" y1="429.478" x2="361.927" y2="453.764" stroke="#7B61FF"/>
</g>
<g opacity="0.12">
<line x1="451.871" y1="0.646447" x2="476.156" y2="24.9313" stroke="#7B61FF"/>
<line x1="476.156" y1="1.35355" x2="451.871" y2="25.639" stroke="#7B61FF"/>
</g>
<g opacity="0.12">
<line x1="451.871" y1="122.968" x2="476.156" y2="147.253" stroke="#7B61FF"/>
<line x1="476.156" y1="123.675" x2="451.871" y2="147.96" stroke="#7B61FF"/>
</g>
<g opacity="0.12">
<line x1="451.871" y1="245.289" x2="476.156" y2="269.574" stroke="#7B61FF"/>
<line x1="476.156" y1="245.996" x2="451.871" y2="270.282" stroke="#7B61FF"/>
</g>
<g opacity="0.12">
<line x1="451.871" y1="367.61" x2="476.156" y2="391.895" stroke="#7B61FF"/>
<line x1="476.156" y1="368.317" x2="451.871" y2="392.603" stroke="#7B61FF"/>
</g>
<g opacity="0.12">
<line x1="422.19" y1="61.8071" x2="446.475" y2="86.092" stroke="#7B61FF"/>
<line x1="446.475" y1="62.5143" x2="422.19" y2="86.7998" stroke="#7B61FF"/>
</g>
<g opacity="0.12">
<line x1="422.19" y1="184.129" x2="446.475" y2="208.413" stroke="#7B61FF"/>
<line x1="446.475" y1="184.836" x2="422.19" y2="209.121" stroke="#7B61FF"/>
</g>
<g opacity="0.12">
<line x1="422.19" y1="306.45" x2="446.475" y2="330.735" stroke="#7B61FF"/>
<line x1="446.475" y1="307.157" x2="422.19" y2="331.442" stroke="#7B61FF"/>
</g>
<g opacity="0.12">
<line x1="422.19" y1="428.771" x2="446.475" y2="453.056" stroke="#7B61FF"/>
<line x1="446.475" y1="429.478" x2="422.19" y2="453.764" stroke="#7B61FF"/>
</g>
<g opacity="0.12">
<line x1="512.134" y1="0.646447" x2="536.418" y2="24.9313" stroke="#7B61FF"/>
<line x1="536.419" y1="1.35355" x2="512.133" y2="25.639" stroke="#7B61FF"/>
</g>
<g opacity="0.12">
<line x1="512.134" y1="122.968" x2="536.418" y2="147.253" stroke="#7B61FF"/>
<line x1="536.419" y1="123.675" x2="512.133" y2="147.96" stroke="#7B61FF"/>
</g>
<g opacity="0.12">
<line x1="512.134" y1="245.289" x2="536.418" y2="269.574" stroke="#7B61FF"/>
<line x1="536.419" y1="245.996" x2="512.133" y2="270.282" stroke="#7B61FF"/>
</g>
<g opacity="0.12">
<line x1="512.134" y1="367.61" x2="536.418" y2="391.895" stroke="#7B61FF"/>
<line x1="536.419" y1="368.317" x2="512.133" y2="392.603" stroke="#7B61FF"/>
</g>
<g opacity="0.12">
<line x1="482.453" y1="61.8071" x2="506.738" y2="86.092" stroke="#7B61FF"/>
<line x1="506.738" y1="62.5143" x2="482.452" y2="86.7998" stroke="#7B61FF"/>
</g>
<g opacity="0.12">
<line x1="482.453" y1="184.129" x2="506.738" y2="208.413" stroke="#7B61FF"/>
<line x1="506.738" y1="184.836" x2="482.452" y2="209.121" stroke="#7B61FF"/>
</g>
<g opacity="0.12">
<line x1="482.453" y1="306.45" x2="506.738" y2="330.735" stroke="#7B61FF"/>
<line x1="506.738" y1="307.157" x2="482.452" y2="331.442" stroke="#7B61FF"/>
</g>
<g opacity="0.12">
<line x1="482.453" y1="428.771" x2="506.738" y2="453.056" stroke="#7B61FF"/>
<line x1="506.738" y1="429.478" x2="482.452" y2="453.764" stroke="#7B61FF"/>
</g>
<g opacity="0.12">
<line x1="572.396" y1="0.646447" x2="596.681" y2="24.9313" stroke="#7B61FF"/>
<line x1="596.681" y1="1.35355" x2="572.395" y2="25.639" stroke="#7B61FF"/>
</g>
<g opacity="0.12">
<line x1="572.396" y1="122.968" x2="596.681" y2="147.253" stroke="#7B61FF"/>
<line x1="596.681" y1="123.675" x2="572.395" y2="147.96" stroke="#7B61FF"/>
</g>
<g opacity="0.12">
<line x1="572.396" y1="245.289" x2="596.681" y2="269.574" stroke="#7B61FF"/>
<line x1="596.681" y1="245.996" x2="572.395" y2="270.282" stroke="#7B61FF"/>
</g>
<g opacity="0.12">
<line x1="572.396" y1="367.61" x2="596.681" y2="391.895" stroke="#7B61FF"/>
<line x1="596.681" y1="368.317" x2="572.395" y2="392.603" stroke="#7B61FF"/>
</g>
<g opacity="0.12">
<line x1="542.715" y1="61.8071" x2="567" y2="86.092" stroke="#7B61FF"/>
<line x1="567" y1="62.5143" x2="542.715" y2="86.7998" stroke="#7B61FF"/>
</g>
<g opacity="0.12">
<line x1="542.715" y1="184.129" x2="567" y2="208.413" stroke="#7B61FF"/>
<line x1="567" y1="184.836" x2="542.715" y2="209.121" stroke="#7B61FF"/>
</g>
<g opacity="0.12">
<line x1="542.715" y1="306.45" x2="567" y2="330.735" stroke="#7B61FF"/>
<line x1="567" y1="307.157" x2="542.715" y2="331.442" stroke="#7B61FF"/>
</g>
<g opacity="0.12">
<line x1="542.715" y1="428.771" x2="567" y2="453.056" stroke="#7B61FF"/>
<line x1="567" y1="429.478" x2="542.715" y2="453.764" stroke="#7B61FF"/>
</g>
<g opacity="0.12">
<line x1="632.658" y1="0.646447" x2="656.943" y2="24.9313" stroke="#7B61FF"/>
<line x1="656.943" y1="1.35355" x2="632.658" y2="25.639" stroke="#7B61FF"/>
</g>
<g opacity="0.12">
<line x1="632.658" y1="122.968" x2="656.943" y2="147.253" stroke="#7B61FF"/>
<line x1="656.943" y1="123.675" x2="632.658" y2="147.96" stroke="#7B61FF"/>
</g>
<g opacity="0.12">
<line x1="632.658" y1="245.289" x2="656.943" y2="269.574" stroke="#7B61FF"/>
<line x1="656.943" y1="245.996" x2="632.658" y2="270.282" stroke="#7B61FF"/>
</g>
<g opacity="0.12">
<line x1="632.658" y1="367.61" x2="656.943" y2="391.895" stroke="#7B61FF"/>
<line x1="656.943" y1="368.317" x2="632.658" y2="392.603" stroke="#7B61FF"/>
</g>
<g opacity="0.12">
<line x1="602.977" y1="61.8071" x2="627.262" y2="86.092" stroke="#7B61FF"/>
<line x1="627.262" y1="62.5143" x2="602.977" y2="86.7998" stroke="#7B61FF"/>
</g>
<g opacity="0.12">
<line x1="602.977" y1="184.129" x2="627.262" y2="208.413" stroke="#7B61FF"/>
<line x1="627.262" y1="184.836" x2="602.977" y2="209.121" stroke="#7B61FF"/>
</g>
<g opacity="0.12">
<line x1="602.977" y1="306.45" x2="627.262" y2="330.735" stroke="#7B61FF"/>
<line x1="627.262" y1="307.157" x2="602.977" y2="331.442" stroke="#7B61FF"/>
</g>
<g opacity="0.12">
<line x1="602.977" y1="428.771" x2="627.262" y2="453.056" stroke="#7B61FF"/>
<line x1="627.262" y1="429.478" x2="602.977" y2="453.764" stroke="#7B61FF"/>
</g>
<g opacity="0.12">
<line x1="692.921" y1="0.646447" x2="717.205" y2="24.9313" stroke="#7B61FF"/>
<line x1="717.206" y1="1.35355" x2="692.92" y2="25.639" stroke="#7B61FF"/>
</g>
<g opacity="0.12">
<line x1="692.921" y1="122.968" x2="717.205" y2="147.253" stroke="#7B61FF"/>
<line x1="717.206" y1="123.675" x2="692.92" y2="147.96" stroke="#7B61FF"/>
</g>
<g opacity="0.12">
<line x1="692.921" y1="245.289" x2="717.205" y2="269.574" stroke="#7B61FF"/>
<line x1="717.206" y1="245.996" x2="692.92" y2="270.282" stroke="#7B61FF"/>
</g>
<g opacity="0.12">
<line x1="692.921" y1="367.61" x2="717.205" y2="391.895" stroke="#7B61FF"/>
<line x1="717.206" y1="368.317" x2="692.92" y2="392.603" stroke="#7B61FF"/>
</g>
<g opacity="0.12">
<line x1="663.24" y1="61.8071" x2="687.525" y2="86.092" stroke="#7B61FF"/>
<line x1="687.525" y1="62.5143" x2="663.239" y2="86.7998" stroke="#7B61FF"/>
</g>
<g opacity="0.12">
<line x1="663.24" y1="184.129" x2="687.525" y2="208.413" stroke="#7B61FF"/>
<line x1="687.525" y1="184.836" x2="663.239" y2="209.121" stroke="#7B61FF"/>
</g>
<g opacity="0.12">
<line x1="663.24" y1="306.45" x2="687.525" y2="330.735" stroke="#7B61FF"/>
<line x1="687.525" y1="307.157" x2="663.239" y2="331.442" stroke="#7B61FF"/>
</g>
<g opacity="0.12">
<line x1="663.24" y1="428.771" x2="687.525" y2="453.056" stroke="#7B61FF"/>
<line x1="687.525" y1="429.478" x2="663.239" y2="453.764" stroke="#7B61FF"/>
</g>
<g opacity="0.12">
<line x1="753.183" y1="0.646447" x2="777.468" y2="24.9313" stroke="#7B61FF"/>
<line x1="777.468" y1="1.35355" x2="753.182" y2="25.639" stroke="#7B61FF"/>
</g>
<g opacity="0.12">
<line x1="753.183" y1="122.968" x2="777.468" y2="147.253" stroke="#7B61FF"/>
<line x1="777.468" y1="123.675" x2="753.182" y2="147.96" stroke="#7B61FF"/>
</g>
<g opacity="0.12">
<line x1="753.183" y1="245.289" x2="777.468" y2="269.574" stroke="#7B61FF"/>
<line x1="777.468" y1="245.996" x2="753.182" y2="270.282" stroke="#7B61FF"/>
</g>
<g opacity="0.12">
<line x1="753.183" y1="367.61" x2="777.468" y2="391.895" stroke="#7B61FF"/>
<line x1="777.468" y1="368.317" x2="753.182" y2="392.603" stroke="#7B61FF"/>
</g>
<g opacity="0.12">
<line x1="723.502" y1="61.8071" x2="747.787" y2="86.092" stroke="#7B61FF"/>
<line x1="747.787" y1="62.5143" x2="723.501" y2="86.7998" stroke="#7B61FF"/>
</g>
<g opacity="0.12">
<line x1="723.502" y1="184.129" x2="747.787" y2="208.413" stroke="#7B61FF"/>
<line x1="747.787" y1="184.836" x2="723.501" y2="209.121" stroke="#7B61FF"/>
</g>
<g opacity="0.12">
<line x1="723.502" y1="306.45" x2="747.787" y2="330.735" stroke="#7B61FF"/>
<line x1="747.787" y1="307.157" x2="723.501" y2="331.442" stroke="#7B61FF"/>
</g>
<g opacity="0.12">
<line x1="723.502" y1="428.771" x2="747.787" y2="453.056" stroke="#7B61FF"/>
<line x1="747.787" y1="429.478" x2="723.501" y2="453.764" stroke="#7B61FF"/>
</g>
<g opacity="0.12">
<line x1="813.445" y1="0.646447" x2="837.73" y2="24.9313" stroke="#7B61FF"/>
<line x1="837.73" y1="1.35355" x2="813.445" y2="25.639" stroke="#7B61FF"/>
</g>
<g opacity="0.12">
<line x1="813.445" y1="122.968" x2="837.73" y2="147.253" stroke="#7B61FF"/>
<line x1="837.73" y1="123.675" x2="813.445" y2="147.96" stroke="#7B61FF"/>
</g>
<g opacity="0.12">
<line x1="813.445" y1="245.289" x2="837.73" y2="269.574" stroke="#7B61FF"/>
<line x1="837.73" y1="245.996" x2="813.445" y2="270.282" stroke="#7B61FF"/>
</g>
<g opacity="0.12">
<line x1="813.445" y1="367.61" x2="837.73" y2="391.895" stroke="#7B61FF"/>
<line x1="837.73" y1="368.317" x2="813.445" y2="392.603" stroke="#7B61FF"/>
</g>
<g opacity="0.12">
<line x1="783.764" y1="61.8071" x2="808.049" y2="86.092" stroke="#7B61FF"/>
<line x1="808.049" y1="62.5143" x2="783.764" y2="86.7998" stroke="#7B61FF"/>
</g>
<g opacity="0.12">
<line x1="783.764" y1="184.129" x2="808.049" y2="208.413" stroke="#7B61FF"/>
<line x1="808.049" y1="184.836" x2="783.764" y2="209.121" stroke="#7B61FF"/>
</g>
<g opacity="0.12">
<line x1="783.764" y1="306.45" x2="808.049" y2="330.735" stroke="#7B61FF"/>
<line x1="808.049" y1="307.157" x2="783.764" y2="331.442" stroke="#7B61FF"/>
</g>
<g opacity="0.12">
<line x1="783.764" y1="428.771" x2="808.049" y2="453.056" stroke="#7B61FF"/>
<line x1="808.049" y1="429.478" x2="783.764" y2="453.764" stroke="#7B61FF"/>
</g>
<g opacity="0.12">
<line x1="873.708" y1="0.646447" x2="897.992" y2="24.9313" stroke="#7B61FF"/>
<line x1="897.993" y1="1.35355" x2="873.707" y2="25.639" stroke="#7B61FF"/>
</g>
<g opacity="0.12">
<line x1="873.708" y1="122.968" x2="897.992" y2="147.253" stroke="#7B61FF"/>
<line x1="897.993" y1="123.675" x2="873.707" y2="147.96" stroke="#7B61FF"/>
</g>
<g opacity="0.12">
<line x1="873.708" y1="245.289" x2="897.992" y2="269.574" stroke="#7B61FF"/>
<line x1="897.993" y1="245.996" x2="873.707" y2="270.282" stroke="#7B61FF"/>
</g>
<g opacity="0.12">
<line x1="873.708" y1="367.61" x2="897.992" y2="391.895" stroke="#7B61FF"/>
<line x1="897.993" y1="368.317" x2="873.707" y2="392.603" stroke="#7B61FF"/>
</g>
<g opacity="0.12">
<line x1="844.027" y1="61.8071" x2="868.312" y2="86.092" stroke="#7B61FF"/>
<line x1="868.312" y1="62.5143" x2="844.026" y2="86.7998" stroke="#7B61FF"/>
</g>
<g opacity="0.12">
<line x1="844.027" y1="184.129" x2="868.312" y2="208.413" stroke="#7B61FF"/>
<line x1="868.312" y1="184.836" x2="844.026" y2="209.121" stroke="#7B61FF"/>
</g>
<g opacity="0.12">
<line x1="844.027" y1="306.45" x2="868.312" y2="330.735" stroke="#7B61FF"/>
<line x1="868.312" y1="307.157" x2="844.026" y2="331.442" stroke="#7B61FF"/>
</g>
<g opacity="0.12">
<line x1="844.027" y1="428.771" x2="868.312" y2="453.056" stroke="#7B61FF"/>
<line x1="868.312" y1="429.478" x2="844.026" y2="453.764" stroke="#7B61FF"/>
</g>
<g opacity="0.12">
<line x1="933.97" y1="0.646447" x2="958.255" y2="24.9313" stroke="#7B61FF"/>
<line x1="958.255" y1="1.35355" x2="933.969" y2="25.639" stroke="#7B61FF"/>
</g>
<g opacity="0.12">
<line x1="933.97" y1="122.968" x2="958.255" y2="147.253" stroke="#7B61FF"/>
<line x1="958.255" y1="123.675" x2="933.969" y2="147.96" stroke="#7B61FF"/>
</g>
<g opacity="0.12">
<line x1="933.97" y1="245.289" x2="958.255" y2="269.574" stroke="#7B61FF"/>
<line x1="958.255" y1="245.996" x2="933.969" y2="270.282" stroke="#7B61FF"/>
</g>
<g opacity="0.12">
<line x1="933.97" y1="367.61" x2="958.255" y2="391.895" stroke="#7B61FF"/>
<line x1="958.255" y1="368.317" x2="933.969" y2="392.603" stroke="#7B61FF"/>
</g>
<g opacity="0.12">
<line x1="904.289" y1="61.8071" x2="928.574" y2="86.092" stroke="#7B61FF"/>
<line x1="928.574" y1="62.5143" x2="904.289" y2="86.7998" stroke="#7B61FF"/>
</g>
<g opacity="0.12">
<line x1="904.289" y1="184.129" x2="928.574" y2="208.413" stroke="#7B61FF"/>
<line x1="928.574" y1="184.836" x2="904.289" y2="209.121" stroke="#7B61FF"/>
</g>
<g opacity="0.12">
<line x1="904.289" y1="306.45" x2="928.574" y2="330.735" stroke="#7B61FF"/>
<line x1="928.574" y1="307.157" x2="904.289" y2="331.442" stroke="#7B61FF"/>
</g>
<g opacity="0.12">
<line x1="904.289" y1="428.771" x2="928.574" y2="453.056" stroke="#7B61FF"/>
<line x1="928.574" y1="429.478" x2="904.289" y2="453.764" stroke="#7B61FF"/>
</g>
<g opacity="0.12">
<line x1="994.232" y1="0.646447" x2="1018.52" y2="24.9313" stroke="#7B61FF"/>
<line x1="1018.52" y1="1.35355" x2="994.232" y2="25.639" stroke="#7B61FF"/>
</g>
<g opacity="0.12">
<line x1="994.232" y1="122.968" x2="1018.52" y2="147.253" stroke="#7B61FF"/>
<line x1="1018.52" y1="123.675" x2="994.232" y2="147.96" stroke="#7B61FF"/>
</g>
<g opacity="0.12">
<line x1="994.232" y1="245.289" x2="1018.52" y2="269.574" stroke="#7B61FF"/>
<line x1="1018.52" y1="245.996" x2="994.232" y2="270.282" stroke="#7B61FF"/>
</g>
<g opacity="0.12">
<line x1="994.232" y1="367.61" x2="1018.52" y2="391.895" stroke="#7B61FF"/>
<line x1="1018.52" y1="368.317" x2="994.232" y2="392.603" stroke="#7B61FF"/>
</g>
<g opacity="0.12">
<line x1="964.551" y1="61.8071" x2="988.836" y2="86.092" stroke="#7B61FF"/>
<line x1="988.836" y1="62.5143" x2="964.551" y2="86.7998" stroke="#7B61FF"/>
</g>
<g opacity="0.12">
<line x1="964.551" y1="184.129" x2="988.836" y2="208.413" stroke="#7B61FF"/>
<line x1="988.836" y1="184.836" x2="964.551" y2="209.121" stroke="#7B61FF"/>
</g>
<g opacity="0.12">
<line x1="964.551" y1="306.45" x2="988.836" y2="330.735" stroke="#7B61FF"/>
<line x1="988.836" y1="307.157" x2="964.551" y2="331.442" stroke="#7B61FF"/>
</g>
<g opacity="0.12">
<line x1="964.551" y1="428.771" x2="988.836" y2="453.056" stroke="#7B61FF"/>
<line x1="988.836" y1="429.478" x2="964.551" y2="453.764" stroke="#7B61FF"/>
</g>
<g opacity="0.12">
<line x1="1054.49" y1="0.646447" x2="1078.78" y2="24.9313" stroke="#7B61FF"/>
<line x1="1078.78" y1="1.35355" x2="1054.49" y2="25.639" stroke="#7B61FF"/>
</g>
<g opacity="0.12">
<line x1="1054.49" y1="122.968" x2="1078.78" y2="147.253" stroke="#7B61FF"/>
<line x1="1078.78" y1="123.675" x2="1054.49" y2="147.96" stroke="#7B61FF"/>
</g>
<g opacity="0.12">
<line x1="1054.49" y1="245.289" x2="1078.78" y2="269.574" stroke="#7B61FF"/>
<line x1="1078.78" y1="245.996" x2="1054.49" y2="270.282" stroke="#7B61FF"/>
</g>
<g opacity="0.12">
<line x1="1054.49" y1="367.61" x2="1078.78" y2="391.895" stroke="#7B61FF"/>
<line x1="1078.78" y1="368.317" x2="1054.49" y2="392.603" stroke="#7B61FF"/>
</g>
<g opacity="0.12">
<line x1="1024.81" y1="61.8071" x2="1049.1" y2="86.092" stroke="#7B61FF"/>
<line x1="1049.1" y1="62.5143" x2="1024.81" y2="86.7998" stroke="#7B61FF"/>
</g>
<g opacity="0.12">
<line x1="1024.81" y1="184.129" x2="1049.1" y2="208.413" stroke="#7B61FF"/>
<line x1="1049.1" y1="184.836" x2="1024.81" y2="209.121" stroke="#7B61FF"/>
</g>
<g opacity="0.12">
<line x1="1024.81" y1="306.45" x2="1049.1" y2="330.735" stroke="#7B61FF"/>
<line x1="1049.1" y1="307.157" x2="1024.81" y2="331.442" stroke="#7B61FF"/>
</g>
<g opacity="0.12">
<line x1="1024.81" y1="428.771" x2="1049.1" y2="453.056" stroke="#7B61FF"/>
<line x1="1049.1" y1="429.478" x2="1024.81" y2="453.764" stroke="#7B61FF"/>
</g>
<g opacity="0.12">
<line x1="1114.76" y1="0.646447" x2="1139.04" y2="24.9313" stroke="#7B61FF"/>
<line x1="1139.04" y1="1.35355" x2="1114.76" y2="25.639" stroke="#7B61FF"/>
</g>
<g opacity="0.12">
<line x1="1114.76" y1="122.968" x2="1139.04" y2="147.253" stroke="#7B61FF"/>
<line x1="1139.04" y1="123.675" x2="1114.76" y2="147.96" stroke="#7B61FF"/>
</g>
<g opacity="0.12">
<line x1="1114.76" y1="245.289" x2="1139.04" y2="269.574" stroke="#7B61FF"/>
<line x1="1139.04" y1="245.996" x2="1114.76" y2="270.282" stroke="#7B61FF"/>
</g>
<g opacity="0.12">
<line x1="1114.76" y1="367.61" x2="1139.04" y2="391.895" stroke="#7B61FF"/>
<line x1="1139.04" y1="368.317" x2="1114.76" y2="392.603" stroke="#7B61FF"/>
</g>
<g opacity="0.12">
<line x1="1085.08" y1="61.8071" x2="1109.36" y2="86.092" stroke="#7B61FF"/>
<line x1="1109.36" y1="62.5143" x2="1085.08" y2="86.7998" stroke="#7B61FF"/>
</g>
<g opacity="0.12">
<line x1="1085.08" y1="184.129" x2="1109.36" y2="208.413" stroke="#7B61FF"/>
<line x1="1109.36" y1="184.836" x2="1085.08" y2="209.121" stroke="#7B61FF"/>
</g>
<g opacity="0.12">
<line x1="1085.08" y1="306.45" x2="1109.36" y2="330.735" stroke="#7B61FF"/>
<line x1="1109.36" y1="307.157" x2="1085.08" y2="331.442" stroke="#7B61FF"/>
</g>
<g opacity="0.12">
<line x1="1085.08" y1="428.771" x2="1109.36" y2="453.056" stroke="#7B61FF"/>
<line x1="1109.36" y1="429.478" x2="1085.08" y2="453.764" stroke="#7B61FF"/>
</g>
<g opacity="0.12">
<line x1="1175.02" y1="0.646447" x2="1199.3" y2="24.9313" stroke="#7B61FF"/>
<line x1="1199.3" y1="1.35355" x2="1175.02" y2="25.639" stroke="#7B61FF"/>
</g>
<g opacity="0.12">
<line x1="1175.02" y1="122.968" x2="1199.3" y2="147.253" stroke="#7B61FF"/>
<line x1="1199.3" y1="123.675" x2="1175.02" y2="147.96" stroke="#7B61FF"/>
</g>
<g opacity="0.12">
<line x1="1175.02" y1="245.289" x2="1199.3" y2="269.574" stroke="#7B61FF"/>
<line x1="1199.3" y1="245.996" x2="1175.02" y2="270.282" stroke="#7B61FF"/>
</g>
<g opacity="0.12">
<line x1="1175.02" y1="367.61" x2="1199.3" y2="391.895" stroke="#7B61FF"/>
<line x1="1199.3" y1="368.317" x2="1175.02" y2="392.603" stroke="#7B61FF"/>
</g>
<g opacity="0.12">
<line x1="1145.34" y1="61.8071" x2="1169.62" y2="86.092" stroke="#7B61FF"/>
<line x1="1169.62" y1="62.5143" x2="1145.34" y2="86.7998" stroke="#7B61FF"/>
</g>
<g opacity="0.12">
<line x1="1145.34" y1="184.129" x2="1169.62" y2="208.413" stroke="#7B61FF"/>
<line x1="1169.62" y1="184.836" x2="1145.34" y2="209.121" stroke="#7B61FF"/>
</g>
<g opacity="0.12">
<line x1="1145.34" y1="306.45" x2="1169.62" y2="330.735" stroke="#7B61FF"/>
<line x1="1169.62" y1="307.157" x2="1145.34" y2="331.442" stroke="#7B61FF"/>
</g>
<g opacity="0.12">
<line x1="1145.34" y1="428.771" x2="1169.62" y2="453.056" stroke="#7B61FF"/>
<line x1="1169.62" y1="429.478" x2="1145.34" y2="453.764" stroke="#7B61FF"/>
</g>
<g opacity="0.12">
<line x1="1235.28" y1="0.646569" x2="1259.57" y2="24.9315" stroke="#7B61FF"/>
<line x1="1259.57" y1="1.35355" x2="1235.28" y2="25.639" stroke="#7B61FF"/>
</g>
<g opacity="0.12">
<line x1="1235.28" y1="122.968" x2="1259.57" y2="147.253" stroke="#7B61FF"/>
<line x1="1259.57" y1="123.675" x2="1235.28" y2="147.96" stroke="#7B61FF"/>
</g>
<g opacity="0.12">
<line x1="1235.28" y1="245.289" x2="1259.57" y2="269.574" stroke="#7B61FF"/>
<line x1="1259.57" y1="245.996" x2="1235.28" y2="270.282" stroke="#7B61FF"/>
</g>
<g opacity="0.12">
<line x1="1235.28" y1="367.61" x2="1259.57" y2="391.895" stroke="#7B61FF"/>
<line x1="1259.57" y1="368.317" x2="1235.28" y2="392.603" stroke="#7B61FF"/>
</g>
<g opacity="0.12">
<line x1="1205.6" y1="61.8071" x2="1229.89" y2="86.092" stroke="#7B61FF"/>
<line x1="1229.89" y1="62.5143" x2="1205.6" y2="86.7998" stroke="#7B61FF"/>
</g>
<g opacity="0.12">
<line x1="1205.6" y1="184.129" x2="1229.89" y2="208.413" stroke="#7B61FF"/>
<line x1="1229.89" y1="184.836" x2="1205.6" y2="209.121" stroke="#7B61FF"/>
</g>
<g opacity="0.12">
<line x1="1205.6" y1="306.45" x2="1229.89" y2="330.735" stroke="#7B61FF"/>
<line x1="1229.89" y1="307.157" x2="1205.6" y2="331.442" stroke="#7B61FF"/>
</g>
<g opacity="0.12">
<line x1="1205.6" y1="428.771" x2="1229.89" y2="453.056" stroke="#7B61FF"/>
<line x1="1229.89" y1="429.478" x2="1205.6" y2="453.764" stroke="#7B61FF"/>
</g>
<g opacity="0.12">
<line x1="1295.54" y1="0.646447" x2="1319.83" y2="24.9313" stroke="#7B61FF"/>
<line x1="1319.83" y1="1.35355" x2="1295.54" y2="25.639" stroke="#7B61FF"/>
</g>
<g opacity="0.12">
<line x1="1295.54" y1="122.968" x2="1319.83" y2="147.253" stroke="#7B61FF"/>
<line x1="1319.83" y1="123.675" x2="1295.54" y2="147.96" stroke="#7B61FF"/>
</g>
<g opacity="0.12">
<line x1="1295.54" y1="245.289" x2="1319.83" y2="269.574" stroke="#7B61FF"/>
<line x1="1319.83" y1="245.996" x2="1295.54" y2="270.282" stroke="#7B61FF"/>
</g>
<g opacity="0.12">
<line x1="1295.54" y1="367.61" x2="1319.83" y2="391.895" stroke="#7B61FF"/>
<line x1="1319.83" y1="368.317" x2="1295.54" y2="392.603" stroke="#7B61FF"/>
</g>
<g opacity="0.12">
<line x1="1265.86" y1="61.8071" x2="1290.15" y2="86.092" stroke="#7B61FF"/>
<line x1="1290.15" y1="62.5143" x2="1265.86" y2="86.7998" stroke="#7B61FF"/>
</g>
<g opacity="0.12">
<line x1="1265.86" y1="184.129" x2="1290.15" y2="208.413" stroke="#7B61FF"/>
<line x1="1290.15" y1="184.836" x2="1265.86" y2="209.121" stroke="#7B61FF"/>
</g>
<g opacity="0.12">
<line x1="1265.86" y1="306.45" x2="1290.15" y2="330.735" stroke="#7B61FF"/>
<line x1="1290.15" y1="307.157" x2="1265.86" y2="331.442" stroke="#7B61FF"/>
</g>
<g opacity="0.12">
<line x1="1265.86" y1="428.771" x2="1290.15" y2="453.056" stroke="#7B61FF"/>
<line x1="1290.15" y1="429.478" x2="1265.86" y2="453.764" stroke="#7B61FF"/>
</g>
<g opacity="0.12">
<line x1="1355.81" y1="0.646447" x2="1380.09" y2="24.9313" stroke="#7B61FF"/>
<line x1="1380.09" y1="1.35355" x2="1355.81" y2="25.639" stroke="#7B61FF"/>
</g>
<g opacity="0.12">
<line x1="1355.81" y1="122.968" x2="1380.09" y2="147.253" stroke="#7B61FF"/>
<line x1="1380.09" y1="123.675" x2="1355.81" y2="147.96" stroke="#7B61FF"/>
</g>
<g opacity="0.12">
<line x1="1355.81" y1="245.289" x2="1380.09" y2="269.574" stroke="#7B61FF"/>
<line x1="1380.09" y1="245.996" x2="1355.81" y2="270.282" stroke="#7B61FF"/>
</g>
<g opacity="0.12">
<line x1="1355.81" y1="367.61" x2="1380.09" y2="391.895" stroke="#7B61FF"/>
<line x1="1380.09" y1="368.317" x2="1355.81" y2="392.603" stroke="#7B61FF"/>
</g>
<g opacity="0.12">
<line x1="1326.13" y1="61.8071" x2="1350.41" y2="86.092" stroke="#7B61FF"/>
<line x1="1350.41" y1="62.5143" x2="1326.12" y2="86.7998" stroke="#7B61FF"/>
</g>
<g opacity="0.12">
<line x1="1326.13" y1="184.129" x2="1350.41" y2="208.413" stroke="#7B61FF"/>
<line x1="1350.41" y1="184.836" x2="1326.12" y2="209.121" stroke="#7B61FF"/>
</g>
<g opacity="0.12">
<line x1="1326.13" y1="306.45" x2="1350.41" y2="330.735" stroke="#7B61FF"/>
<line x1="1350.41" y1="307.157" x2="1326.12" y2="331.442" stroke="#7B61FF"/>
</g>
<g opacity="0.12">
<line x1="1326.13" y1="428.771" x2="1350.41" y2="453.056" stroke="#7B61FF"/>
<line x1="1350.41" y1="429.478" x2="1326.12" y2="453.764" stroke="#7B61FF"/>
</g>
<g opacity="0.12">
<line x1="1416.07" y1="0.646447" x2="1440.35" y2="24.9313" stroke="#7B61FF"/>
<line x1="1440.35" y1="1.35355" x2="1416.07" y2="25.639" stroke="#7B61FF"/>
</g>
<g opacity="0.12">
<line x1="1416.07" y1="122.968" x2="1440.35" y2="147.253" stroke="#7B61FF"/>
<line x1="1440.35" y1="123.675" x2="1416.07" y2="147.96" stroke="#7B61FF"/>
</g>
<g opacity="0.12">
<line x1="1416.07" y1="245.289" x2="1440.35" y2="269.574" stroke="#7B61FF"/>
<line x1="1440.35" y1="245.996" x2="1416.07" y2="270.282" stroke="#7B61FF"/>
</g>
<g opacity="0.12">
<line x1="1416.07" y1="367.61" x2="1440.35" y2="391.895" stroke="#7B61FF"/>
<line x1="1440.35" y1="368.317" x2="1416.07" y2="392.603" stroke="#7B61FF"/>
</g>
<g opacity="0.12">
<line x1="1386.39" y1="61.8071" x2="1410.67" y2="86.092" stroke="#7B61FF"/>
<line x1="1410.67" y1="62.5143" x2="1386.39" y2="86.7998" stroke="#7B61FF"/>
</g>
<g opacity="0.12">
<line x1="1386.39" y1="184.129" x2="1410.67" y2="208.413" stroke="#7B61FF"/>
<line x1="1410.67" y1="184.836" x2="1386.39" y2="209.121" stroke="#7B61FF"/>
</g>
<g opacity="0.12">
<line x1="1386.39" y1="306.45" x2="1410.67" y2="330.735" stroke="#7B61FF"/>
<line x1="1410.67" y1="307.157" x2="1386.39" y2="331.442" stroke="#7B61FF"/>
</g>
<g opacity="0.12">
<line x1="1386.39" y1="428.771" x2="1410.67" y2="453.056" stroke="#7B61FF"/>
<line x1="1410.67" y1="429.478" x2="1386.39" y2="453.764" stroke="#7B61FF"/>
</g>
</svg>
