<svg width="37" height="37" viewBox="0 0 37 37" fill="none" xmlns="http://www.w3.org/2000/svg">
<circle opacity="0.5" cx="18.1452" cy="18.1452" r="18.1452" fill="#F246F5"/>
<path d="M27.5331 13.7351C27.5483 13.9429 27.5483 14.1508 27.5483 14.3586C27.5483 20.6968 22.5991 28 13.5533 28C10.7665 28 8.17768 27.2132 6 25.8477C6.39595 25.8922 6.77663 25.907 7.18782 25.907C9.48728 25.907 11.6041 25.15 13.2944 23.8586C11.132 23.8141 9.31979 22.4336 8.69542 20.5336C9.00001 20.5781 9.30456 20.6078 9.62439 20.6078C10.066 20.6078 10.5077 20.5484 10.9188 20.4445C8.66499 19.9992 6.97458 18.0695 6.97458 15.7391V15.6797C7.62938 16.036 8.39087 16.2586 9.19792 16.2883C7.87304 15.4273 7.00505 13.9578 7.00505 12.2953C7.00505 11.4047 7.24866 10.5883 7.67508 9.87576C10.0964 12.7851 13.736 14.6851 17.8172 14.8929C17.7411 14.5367 17.6954 14.1656 17.6954 13.7945C17.6954 11.1523 19.8883 9 22.6142 9C24.0304 9 25.3096 9.5789 26.2081 10.5141C27.3198 10.3063 28.3858 9.90546 29.33 9.35625C28.9644 10.4696 28.1878 11.4047 27.1675 11.9984C28.1574 11.8946 29.1168 11.6273 30 11.2563C29.3301 12.2062 28.4924 13.0523 27.5331 13.7351Z" fill="#212121"/>
</svg>
