<svg width="103" height="52" viewBox="0 0 103 52" fill="none" xmlns="http://www.w3.org/2000/svg">
<path opacity="0.5" d="M4.548 22.6C5.316 22.6 5.96 22.792 6.48 23.176C7.008 23.552 7.4 24.06 7.656 24.7C7.92 25.332 8.052 26.032 8.052 26.8C8.052 27.592 7.92 28.304 7.656 28.936C7.4 29.568 7.008 30.072 6.48 30.448C5.96 30.816 5.316 31 4.548 31H1.488C1.384 31 1.296 30.968 1.224 30.904C1.16 30.832 1.128 30.744 1.128 30.64V22.96C1.128 22.856 1.16 22.772 1.224 22.708C1.296 22.636 1.384 22.6 1.488 22.6H4.548ZM4.428 30.292C5.388 30.292 6.104 29.972 6.576 29.332C7.048 28.684 7.284 27.84 7.284 26.8C7.284 26.152 7.184 25.568 6.984 25.048C6.784 24.52 6.468 24.1 6.036 23.788C5.612 23.468 5.076 23.308 4.428 23.308H1.884V30.292H4.428ZM10.269 30.64C10.269 30.744 10.233 30.832 10.161 30.904C10.097 30.968 10.013 31 9.909 31C9.805 31 9.717 30.968 9.645 30.904C9.581 30.832 9.549 30.744 9.549 30.64V25.12C9.549 25.016 9.581 24.932 9.645 24.868C9.717 24.796 9.805 24.76 9.909 24.76C10.013 24.76 10.097 24.796 10.161 24.868C10.233 24.932 10.269 25.016 10.269 25.12V30.64ZM9.909 23.956C9.749 23.956 9.625 23.92 9.537 23.848C9.449 23.768 9.405 23.656 9.405 23.512V23.392C9.405 23.248 9.449 23.14 9.537 23.068C9.633 22.988 9.761 22.948 9.921 22.948C10.241 22.948 10.401 23.096 10.401 23.392V23.512C10.401 23.656 10.357 23.768 10.269 23.848C10.189 23.92 10.069 23.956 9.909 23.956ZM11.7914 30.028C11.7274 29.924 11.6954 29.836 11.6954 29.764C11.6954 29.66 11.7474 29.58 11.8514 29.524C11.8994 29.476 11.9634 29.452 12.0434 29.452C12.1394 29.452 12.2274 29.492 12.3074 29.572C12.7794 30.196 13.4074 30.508 14.1914 30.508C14.5754 30.508 14.9074 30.42 15.1874 30.244C15.4754 30.06 15.6194 29.796 15.6194 29.452C15.6194 29.116 15.4874 28.864 15.2234 28.696C14.9594 28.528 14.5914 28.384 14.1194 28.264C13.4554 28.096 12.9354 27.88 12.5594 27.616C12.1834 27.344 11.9954 26.948 11.9954 26.428C11.9954 26.1 12.0874 25.808 12.2714 25.552C12.4554 25.288 12.7034 25.084 13.0154 24.94C13.3354 24.796 13.6954 24.724 14.0954 24.724C14.4394 24.724 14.7834 24.792 15.1274 24.928C15.4794 25.056 15.7794 25.264 16.0274 25.552C16.0994 25.608 16.1354 25.688 16.1354 25.792C16.1354 25.888 16.0954 25.972 16.0154 26.044C15.9594 26.092 15.8874 26.116 15.7994 26.116C15.7194 26.116 15.6474 26.084 15.5834 26.02C15.3914 25.804 15.1634 25.64 14.8994 25.528C14.6354 25.416 14.3514 25.36 14.0474 25.36C13.6714 25.36 13.3474 25.448 13.0754 25.624C12.8114 25.8 12.6794 26.064 12.6794 26.416C12.6954 26.736 12.8394 26.98 13.1114 27.148C13.3914 27.316 13.7994 27.468 14.3354 27.604C14.7514 27.708 15.0954 27.824 15.3674 27.952C15.6394 28.08 15.8594 28.26 16.0274 28.492C16.2034 28.724 16.2914 29.032 16.2914 29.416C16.2914 29.936 16.0834 30.352 15.6674 30.664C15.2514 30.968 14.7354 31.12 14.1194 31.12C13.1434 31.12 12.3674 30.756 11.7914 30.028ZM22.9484 27.58C22.9484 27.676 22.9124 27.76 22.8404 27.832C22.7684 27.896 22.6844 27.928 22.5884 27.928H18.0524C18.0524 28.408 18.1484 28.84 18.3404 29.224C18.5404 29.6 18.8204 29.9 19.1804 30.124C19.5484 30.34 19.9804 30.448 20.4764 30.448C20.8604 30.448 21.2044 30.368 21.5084 30.208C21.8124 30.048 22.0564 29.844 22.2404 29.596C22.3284 29.524 22.4124 29.488 22.4924 29.488C22.5724 29.488 22.6444 29.52 22.7084 29.584C22.7724 29.648 22.8044 29.72 22.8044 29.8C22.8044 29.888 22.7644 29.972 22.6844 30.052C22.4284 30.364 22.1044 30.62 21.7124 30.82C21.3284 31.02 20.9204 31.12 20.4884 31.12C19.8724 31.12 19.3284 30.988 18.8564 30.724C18.3844 30.46 18.0164 30.092 17.7524 29.62C17.4884 29.14 17.3564 28.588 17.3564 27.964C17.3564 27.308 17.4844 26.736 17.7404 26.248C18.0044 25.752 18.3524 25.376 18.7844 25.12C19.2164 24.856 19.6764 24.724 20.1644 24.724C20.6444 24.724 21.0924 24.836 21.5084 25.06C21.9324 25.284 22.2764 25.612 22.5404 26.044C22.8044 26.476 22.9404 26.988 22.9484 27.58ZM20.1644 25.42C19.7004 25.42 19.2684 25.58 18.8684 25.9C18.4764 26.22 18.2244 26.68 18.1124 27.28H22.2044V27.184C22.1644 26.824 22.0444 26.512 21.8444 26.248C21.6444 25.976 21.3924 25.772 21.0884 25.636C20.7924 25.492 20.4844 25.42 20.1644 25.42ZM27.3244 24.724C28.0684 24.724 28.6124 24.944 28.9564 25.384C29.3084 25.816 29.4844 26.392 29.4844 27.112V30.64C29.4844 30.744 29.4484 30.832 29.3764 30.904C29.3044 30.968 29.2204 31 29.1244 31C29.0204 31 28.9324 30.968 28.8604 30.904C28.7964 30.832 28.7644 30.744 28.7644 30.64V27.148C28.7644 26.628 28.6324 26.208 28.3684 25.888C28.1124 25.56 27.7124 25.396 27.1684 25.396C26.8244 25.396 26.4964 25.476 26.1844 25.636C25.8804 25.796 25.6324 26.012 25.4404 26.284C25.2484 26.548 25.1524 26.836 25.1524 27.148V30.64C25.1524 30.744 25.1164 30.832 25.0444 30.904C24.9804 30.968 24.8964 31 24.7924 31C24.6884 31 24.6004 30.968 24.5284 30.904C24.4644 30.832 24.4324 30.744 24.4324 30.64V25.264C24.4324 25.16 24.4644 25.076 24.5284 25.012C24.6004 24.94 24.6884 24.904 24.7924 24.904C24.8964 24.904 24.9804 24.94 25.0444 25.012C25.1164 25.076 25.1524 25.16 25.1524 25.264V25.924C25.3684 25.58 25.6764 25.296 26.0764 25.072C26.4844 24.84 26.9004 24.724 27.3244 24.724ZM25.4044 24.028C25.2124 24.028 25.1164 23.92 25.1164 23.704L25.1404 23.512C25.1964 23.256 25.3204 23.056 25.5124 22.912C25.7124 22.768 25.9484 22.696 26.2204 22.696C26.3564 22.696 26.5004 22.732 26.6524 22.804C26.8044 22.868 26.9764 22.964 27.1684 23.092C27.3364 23.196 27.4684 23.272 27.5644 23.32C27.6604 23.368 27.7524 23.392 27.8404 23.392C28.0724 23.392 28.2004 23.24 28.2244 22.936C28.2164 22.848 28.2364 22.776 28.2844 22.72C28.3404 22.664 28.4124 22.636 28.5004 22.636C28.7084 22.636 28.8124 22.756 28.8124 22.996C28.8124 23.06 28.8084 23.108 28.8004 23.14C28.7524 23.404 28.6364 23.612 28.4524 23.764C28.2764 23.916 28.0444 23.992 27.7564 23.992C27.6364 23.992 27.5084 23.964 27.3724 23.908C27.2364 23.844 27.0724 23.752 26.8804 23.632C26.6884 23.52 26.5364 23.44 26.4244 23.392C26.3204 23.344 26.2244 23.32 26.1364 23.32C25.8964 23.32 25.7444 23.468 25.6804 23.764C25.6804 23.852 25.6524 23.92 25.5964 23.968C25.5484 24.008 25.4844 24.028 25.4044 24.028ZM37.0339 27.928C37.0339 28.528 36.9019 29.072 36.6379 29.56C36.3739 30.048 36.0099 30.432 35.5459 30.712C35.0819 30.984 34.5659 31.12 33.9979 31.12C33.4299 31.12 32.9139 30.984 32.4499 30.712C31.9859 30.432 31.6219 30.048 31.3579 29.56C31.0939 29.072 30.9619 28.528 30.9619 27.928C30.9619 27.328 31.0939 26.784 31.3579 26.296C31.6219 25.808 31.9859 25.424 32.4499 25.144C32.9139 24.864 33.4299 24.724 33.9979 24.724C34.5659 24.724 35.0819 24.864 35.5459 25.144C36.0099 25.424 36.3739 25.808 36.6379 26.296C36.9019 26.784 37.0339 27.328 37.0339 27.928ZM36.3139 27.928C36.3139 27.448 36.2139 27.016 36.0139 26.632C35.8139 26.248 35.5339 25.948 35.1739 25.732C34.8219 25.508 34.4299 25.396 33.9979 25.396C33.5659 25.396 33.1739 25.508 32.8219 25.732C32.4699 25.948 32.1899 26.248 31.9819 26.632C31.7819 27.016 31.6819 27.448 31.6819 27.928C31.6819 28.4 31.7819 28.828 31.9819 29.212C32.1899 29.596 32.4699 29.9 32.8219 30.124C33.1739 30.34 33.5659 30.448 33.9979 30.448C34.4299 30.448 34.8219 30.34 35.1739 30.124C35.5339 29.908 35.8139 29.608 36.0139 29.224C36.2139 28.84 36.3139 28.408 36.3139 27.928ZM44.7038 24.82C45.2318 24.82 45.7118 24.956 46.1438 25.228C46.5758 25.492 46.9118 25.864 47.1518 26.344C47.3998 26.816 47.5238 27.348 47.5238 27.94C47.5238 28.54 47.3998 29.08 47.1518 29.56C46.9118 30.032 46.5758 30.404 46.1438 30.676C45.7198 30.948 45.2438 31.084 44.7158 31.084C44.2518 31.084 43.8238 30.976 43.4318 30.76C43.0478 30.536 42.7398 30.24 42.5078 29.872V33.04C42.5078 33.144 42.4718 33.228 42.3998 33.292C42.3358 33.364 42.2518 33.4 42.1478 33.4C42.0438 33.4 41.9558 33.364 41.8838 33.292C41.8198 33.228 41.7878 33.144 41.7878 33.04V25.216C41.7878 25.112 41.8198 25.024 41.8838 24.952C41.9558 24.88 42.0438 24.844 42.1478 24.844C42.2518 24.844 42.3358 24.88 42.3998 24.952C42.4718 25.024 42.5078 25.112 42.5078 25.216V26.032C42.7158 25.656 43.0158 25.36 43.4078 25.144C43.7998 24.928 44.2318 24.82 44.7038 24.82ZM44.6438 30.412C45.0598 30.412 45.4318 30.308 45.7598 30.1C46.0958 29.884 46.3558 29.588 46.5398 29.212C46.7318 28.836 46.8278 28.412 46.8278 27.94C46.8278 27.476 46.7318 27.06 46.5398 26.692C46.3558 26.316 46.0958 26.024 45.7598 25.816C45.4318 25.6 45.0598 25.492 44.6438 25.492C44.2198 25.492 43.8398 25.596 43.5038 25.804C43.1678 26.012 42.9078 26.304 42.7238 26.68C42.5398 27.048 42.4478 27.468 42.4478 27.94C42.4478 28.412 42.5398 28.836 42.7238 29.212C42.9078 29.588 43.1678 29.884 43.5038 30.1C43.8398 30.308 44.2198 30.412 44.6438 30.412ZM54.6706 27.928C54.6706 28.528 54.5386 29.072 54.2746 29.56C54.0106 30.048 53.6466 30.432 53.1826 30.712C52.7186 30.984 52.2026 31.12 51.6346 31.12C51.0666 31.12 50.5506 30.984 50.0866 30.712C49.6226 30.432 49.2586 30.048 48.9946 29.56C48.7306 29.072 48.5986 28.528 48.5986 27.928C48.5986 27.328 48.7306 26.784 48.9946 26.296C49.2586 25.808 49.6226 25.424 50.0866 25.144C50.5506 24.864 51.0666 24.724 51.6346 24.724C52.2026 24.724 52.7186 24.864 53.1826 25.144C53.6466 25.424 54.0106 25.808 54.2746 26.296C54.5386 26.784 54.6706 27.328 54.6706 27.928ZM53.9506 27.928C53.9506 27.448 53.8506 27.016 53.6506 26.632C53.4506 26.248 53.1706 25.948 52.8106 25.732C52.4586 25.508 52.0666 25.396 51.6346 25.396C51.2026 25.396 50.8106 25.508 50.4586 25.732C50.1066 25.948 49.8266 26.248 49.6186 26.632C49.4186 27.016 49.3186 27.448 49.3186 27.928C49.3186 28.4 49.4186 28.828 49.6186 29.212C49.8266 29.596 50.1066 29.9 50.4586 30.124C50.8106 30.34 51.2026 30.448 51.6346 30.448C52.0666 30.448 52.4586 30.34 52.8106 30.124C53.1706 29.908 53.4506 29.608 53.6506 29.224C53.8506 28.84 53.9506 28.408 53.9506 27.928ZM59.0113 24.724C59.1713 24.724 59.3153 24.756 59.4433 24.82C59.5713 24.884 59.6353 24.98 59.6353 25.108C59.6353 25.22 59.6033 25.312 59.5393 25.384C59.4753 25.448 59.3993 25.48 59.3113 25.48C59.2713 25.48 59.1913 25.46 59.0713 25.42C58.9593 25.38 58.8513 25.36 58.7473 25.36C58.4513 25.36 58.1553 25.476 57.8593 25.708C57.5713 25.932 57.3313 26.224 57.1393 26.584C56.9553 26.944 56.8633 27.308 56.8633 27.676V30.64C56.8633 30.744 56.8273 30.832 56.7553 30.904C56.6913 30.968 56.6073 31 56.5033 31C56.3993 31 56.3113 30.968 56.2393 30.904C56.1753 30.832 56.1433 30.744 56.1433 30.64V25.264C56.1433 25.16 56.1753 25.076 56.2393 25.012C56.3113 24.94 56.3993 24.904 56.5033 24.904C56.6073 24.904 56.6913 24.94 56.7553 25.012C56.8273 25.076 56.8633 25.16 56.8633 25.264V26.32C57.0473 25.864 57.3233 25.488 57.6913 25.192C58.0673 24.888 58.5073 24.732 59.0113 24.724Z" fill="white"/>
<g opacity="0.5" clip-path="url(#clip0)">
<path d="M82.0144 41.6613C82.0144 41.0497 82.1866 40.4641 82.2905 39.8818C82.3968 39.2832 82.4133 38.6651 82.6193 38.1063C82.8294 37.5378 83.1236 36.9985 83.4269 36.4819C83.7334 35.9605 84.1257 35.4935 84.5171 35.0346C84.9094 34.5741 85.3478 34.1599 85.815 33.7733C86.2806 33.3875 86.7808 33.0504 87.3098 32.7491C87.834 32.4502 88.3358 32.0717 88.9126 31.8646C89.4796 31.6615 90.1207 31.6948 90.7281 31.5901C91.3189 31.4877 91.9098 31.3895 92.5303 31.3895C93.1508 31.3895 93.7713 31.322 94.3622 31.4244C94.9695 31.5292 95.562 31.7152 96.129 31.9182C96.7058 32.1253 97.2859 32.3495 97.8109 32.6484C98.3399 32.9505 98.8319 33.3282 99.2975 33.7132C99.7647 34.0998 100.223 34.5148 100.615 34.9753C101.007 35.4342 101.358 35.9418 101.665 36.4641C101.968 36.9806 102.167 37.5614 102.377 38.1299C102.583 38.6887 102.811 39.258 102.918 39.8566C103.021 40.439 102.898 41.0506 102.898 41.6621C102.898 42.2737 102.868 42.8585 102.765 43.4409C102.659 44.0394 102.604 44.6429 102.398 45.2017C102.188 45.7702 101.896 46.3006 101.592 46.818C101.285 47.3394 100.896 47.7975 100.505 48.2564C100.112 48.7169 99.7977 49.2627 99.3304 49.6493C98.8649 50.0351 98.3053 50.3145 97.7763 50.6166C97.2522 50.9155 96.6918 51.1592 96.115 51.3663C95.548 51.5693 94.9382 51.6124 94.3309 51.7172C93.74 51.8195 93.1525 51.96 92.5319 51.96C91.9114 51.96 91.3057 51.9186 90.7149 51.8162C90.1075 51.7115 89.5439 51.4914 88.9769 51.2883C88.4001 51.0812 87.8529 50.8449 87.328 50.546C86.7989 50.2438 86.2155 50.0132 85.7507 49.6274C85.2835 49.2408 84.8574 48.7932 84.4652 48.3327C84.0738 47.8738 83.6922 47.3881 83.3857 46.8659C83.0824 46.3493 82.9431 45.7451 82.733 45.1765C82.527 44.6177 82.3078 44.0557 82.2015 43.4571C82.0968 42.8748 82.0144 42.2729 82.0144 41.6613Z" stroke="white" stroke-miterlimit="10"/>
<path d="M76.8624 0L76.8739 0.176246L74.803 4.6352L74.9324 4.62708C75.4887 4.59134 75.9164 4.41997 76.2155 4.11215C76.5146 3.80432 76.7322 3.32188 76.8681 2.664L77.0074 2.65507L76.9802 4.67256L72.8072 4.93977L72.7973 4.79277L74.9069 0.302137L74.7973 0.308634C74.1281 0.351681 73.67 0.488942 73.4227 0.72123C73.1755 0.953517 72.972 1.42865 72.8129 2.14663L72.6836 2.15475L72.6893 0.2664L76.8624 0Z" fill="white"/>
<path d="M80.7841 4.67495C80.5278 4.12429 80.5303 3.48346 80.7932 2.75249C81.0552 2.02151 81.4829 1.54069 82.0762 1.31084C82.6696 1.08018 83.3164 1.08749 84.0169 1.33196C85.4376 1.8274 85.8669 2.76792 85.3066 4.15434L82.6597 3.23168L82.5303 3.5923C82.3136 4.19657 82.2279 4.68064 82.2732 5.04288C82.3185 5.40593 82.5361 5.65527 82.9242 5.7901C83.6502 6.0435 84.2625 5.82665 84.7627 5.14034L84.9217 5.22725C84.6432 5.63009 84.3053 5.90056 83.9065 6.03944C83.5084 6.17833 82.9992 6.13934 82.3795 5.9233C81.5727 5.64228 81.0404 5.22643 80.7841 4.67495ZM82.7355 3.04975L83.7021 3.38681L83.8644 2.93361C84.0441 2.43411 84.1364 2.08324 84.1422 1.88019C84.1479 1.67795 84.0614 1.54475 83.8834 1.48303C83.7046 1.42049 83.5389 1.47247 83.3848 1.63734C83.2307 1.80222 83.0684 2.12223 82.8978 2.59736L82.7355 3.04975Z" fill="white"/>
<path d="M92.2377 6.91105C92.0573 6.74699 91.7911 6.71775 91.4384 6.82334C91.0857 6.92973 90.7602 7.1409 90.4627 7.45766L88.6506 9.38825L89.1697 9.86176L89.0478 9.99171L86.7676 7.91249L86.8896 7.78254L87.2917 8.14884L90.2666 4.97965L89.8644 4.61335L89.9864 4.4834L91.7474 6.08911L91.0981 6.78029C91.3914 6.59348 91.6897 6.51551 91.9946 6.548C92.2987 6.58049 92.5657 6.70069 92.7948 6.90943C93.0239 7.11816 93.15 7.35207 93.1747 7.61035C93.1986 7.86863 93.1022 8.11473 92.883 8.34701C92.6646 8.58011 92.4429 8.71007 92.2188 8.73687C91.9946 8.76367 91.7713 8.67677 91.5496 8.47453C91.328 8.27229 91.2324 8.05138 91.2629 7.81178C91.2934 7.57218 91.4672 7.36101 91.7837 7.17745L92.0466 7.41705C92.3976 7.28466 92.4619 7.11491 92.2377 6.91105Z" fill="white"/>
<path d="M92.513 13.4846C92.7297 12.9323 93.2011 12.4986 93.9262 12.1826C94.6514 11.8667 95.3024 11.8285 95.8776 12.0681C96.4528 12.3077 96.9069 12.7983 97.2398 13.5398C97.5727 14.2813 97.6395 14.914 97.4425 15.4363C97.2448 15.9585 96.7759 16.3808 96.035 16.7033C94.4866 17.3774 93.3717 16.9543 92.691 15.4346C92.3556 14.6866 92.2963 14.0368 92.513 13.4846ZM94.8253 15.1707L95.5991 14.8336C96.1883 14.577 96.6036 14.3585 96.8459 14.1782C97.0882 13.9979 97.1582 13.794 97.056 13.5666C96.9967 13.435 96.9118 13.3449 96.7998 13.2978C96.6877 13.2498 96.5352 13.2466 96.3432 13.2872C96.0457 13.3522 95.6181 13.5065 95.0593 13.7493L94.349 14.0588C93.6873 14.3471 93.2983 14.5396 93.1821 14.6362C93.0659 14.7329 92.9745 14.8214 92.9085 14.9002C92.7923 15.0294 92.7775 15.1902 92.8632 15.381C92.9679 15.6141 93.1731 15.7075 93.478 15.6604C93.6963 15.6304 94.1455 15.4663 94.8253 15.1707Z" fill="white"/>
<path d="M96.6588 22.5641L96.6556 22.8484L97.4219 22.8573C98.0523 22.8647 98.4759 22.8346 98.6926 22.7688C98.9094 22.7022 99.0181 22.5715 99.0206 22.3749C99.0223 22.2571 98.9918 22.1507 98.93 22.0549C98.8682 21.9591 98.7825 21.9111 98.6729 21.9095C98.5633 21.9079 98.452 21.9266 98.3383 21.9647L98.335 22.21C98.1949 22.2604 98.0268 22.2848 97.8315 22.2831C97.6354 22.2807 97.4673 22.197 97.3263 22.0322C97.1854 21.8673 97.1162 21.6602 97.1195 21.4116C97.1261 20.8488 97.4046 20.571 97.9559 20.5775C98.7726 20.5865 99.1722 21.2752 99.1566 22.6421C99.1475 23.4202 99.0066 23.9571 98.7347 24.2519C98.4627 24.5467 97.9675 24.6897 97.2513 24.6815L95.2299 24.6588C94.8846 24.6547 94.7108 24.7473 94.7091 24.9374C94.7066 25.1599 95.047 25.2947 95.7301 25.3418L95.7186 25.4889C95.1343 25.4564 94.7347 25.3435 94.5179 25.151C94.3012 24.9585 94.1949 24.6466 94.2007 24.2153C94.2097 23.4308 94.4602 22.9816 94.953 22.8695C94.7017 22.7818 94.5171 22.6519 94.4001 22.4805C94.2822 22.3091 94.2254 22.0598 94.2295 21.7325C94.241 20.7643 94.6481 20.2851 95.4508 20.2941C95.9221 20.2998 96.2435 20.4882 96.4149 20.8594C96.5863 21.2297 96.6679 21.7983 96.6588 22.5641ZM94.7717 22.2035C94.672 22.2385 94.6209 22.3067 94.6201 22.4082C94.6193 22.5097 94.7025 22.6056 94.8706 22.6957C95.0387 22.7859 95.2719 22.833 95.5711 22.8362L96.4973 22.8468L96.4982 22.7778C96.5031 22.3725 96.2031 22.1662 95.5991 22.1589L95.4401 22.1572C95.0939 22.1532 94.8714 22.1686 94.7717 22.2035Z" fill="white"/>
<path d="M98.0367 29.8643L96.9827 31.989L96.1595 31.5926C96.3869 31.8184 96.5361 32.0694 96.6069 32.3439C96.6778 32.6184 96.6152 32.9522 96.4199 33.3462C95.9683 34.2574 95.2439 34.4727 94.2485 33.9927L91.5562 32.6956L91.3115 33.1894L91.1508 33.1122L92.3885 30.6172L92.5492 30.6951L92.3696 31.0566L95.2769 32.4576C95.6345 32.6298 95.8776 32.7175 96.0054 32.7208C96.1331 32.724 96.2279 32.6639 96.2888 32.5405C96.382 32.352 96.3391 32.1262 96.1603 31.8615C95.9815 31.5967 95.7128 31.3782 95.3552 31.206L92.8863 30.0162L92.6984 30.3954L92.5377 30.3175L93.7796 27.8135L93.9403 27.8914L93.6996 28.3763L97.6354 30.2728L97.876 29.7879L98.0367 29.8643Z" fill="white"/>
<path d="M92.5913 38.3529L90.7742 39.957L87.7318 36.6091L87.3164 36.9754L87.197 36.8438L89.3997 34.8994L89.5192 35.031L89.1113 35.3908L92.0342 38.6071L92.4718 38.2205L92.5913 38.3529ZM91.9296 39.8457C92.1916 39.6142 92.438 39.5151 92.6687 39.5484C92.8995 39.5817 93.103 39.6963 93.281 39.8912C93.4582 40.0861 93.5439 40.3005 93.5373 40.5336C93.5315 40.7675 93.4046 40.9933 93.1574 41.2118C92.9102 41.4303 92.6704 41.5383 92.438 41.5375C92.2056 41.5367 91.993 41.4303 91.8002 41.2183C91.6073 41.0063 91.5159 40.7822 91.5241 40.5466C91.5324 40.3111 91.6675 40.0772 91.9296 39.8457Z" fill="white"/>
<path d="M86.6143 43.0808L84.3061 43.7265L84.0564 42.8582C84.0309 43.5591 83.6584 44.0099 82.9398 44.2113C82.2213 44.412 81.6881 44.1943 81.3387 43.5575C81.3107 44.2999 80.9398 44.7709 80.2246 44.9707C79.286 45.2331 78.6654 44.8392 78.3622 43.7882L77.5439 40.9471L77.0074 41.0974L76.9588 40.9277L79.6115 40.1853L79.6601 40.3551L79.3247 40.4485L80.2081 43.5161C80.3457 43.9945 80.4677 44.2625 80.5748 44.3218C80.6242 44.3486 80.6803 44.3535 80.7445 44.3356C80.93 44.2836 81.0569 44.1155 81.1269 43.8304C81.197 43.5453 81.1772 43.2148 81.0684 42.8371L80.302 40.1747L79.9576 40.2714L79.9089 40.1017L82.3704 39.4129L82.419 39.5827L82.0836 39.6761L82.967 42.7437C83.1047 43.2221 83.2266 43.4901 83.3337 43.5494C83.3832 43.5762 83.4392 43.5811 83.5035 43.5632C83.6823 43.5129 83.8051 43.3342 83.8719 43.0264C83.9386 42.7185 83.918 42.379 83.8117 42.0079L83.061 39.4024L82.7157 39.499L82.6671 39.3293L85.3197 38.5869L85.3692 38.7567L84.8426 38.9037L86.0391 43.0572L86.5657 42.9102L86.6143 43.0808Z" fill="white"/>
<path d="M71.684 42.2288L71.403 42.1622L71.225 42.8973C71.0783 43.5015 71.0132 43.9149 71.0313 44.1383C71.0486 44.3608 71.1541 44.4957 71.3486 44.5411C71.4648 44.5688 71.5768 44.5631 71.6856 44.5249C71.7936 44.4867 71.8611 44.4152 71.8867 44.3097C71.9122 44.2049 71.9188 44.0936 71.9065 43.9767L71.6642 43.9198C71.6452 43.7744 71.6584 43.6071 71.7038 43.4195C71.7491 43.2319 71.8694 43.0889 72.0639 42.9898C72.2583 42.8908 72.4784 42.8705 72.7239 42.9289C73.2794 43.0597 73.4928 43.3894 73.3642 43.9174C73.1739 44.6995 72.405 44.9318 71.0552 44.6134C70.2872 44.4323 69.7878 44.1781 69.5562 43.8508C69.3255 43.5235 69.2925 43.0166 69.4598 42.3295L69.9304 40.3925C70.0111 40.0619 69.9576 39.8743 69.7705 39.8296C69.5513 39.7776 69.342 40.0749 69.1442 40.7214L69 40.6775C69.1615 40.1236 69.3618 39.7638 69.5999 39.5981C69.8381 39.4324 70.1702 39.4 70.5962 39.4999C71.3708 39.6826 71.759 40.0229 71.7606 40.5216C71.9032 40.2999 72.0721 40.1512 72.2682 40.0765C72.4644 40.0018 72.7231 40.0018 73.0462 40.0781C74.0012 40.3039 74.3861 40.801 74.199 41.5709C74.0894 42.0225 73.8315 42.2897 73.426 42.3726C73.0198 42.4546 72.4396 42.4067 71.684 42.2288ZM72.4586 40.494C72.4462 40.39 72.3902 40.3267 72.2897 40.3031C72.1899 40.2796 72.0762 40.3388 71.9501 40.4802C71.8232 40.6215 71.7252 40.8359 71.656 41.1218L71.4401 42.0095L71.5076 42.0258C71.9081 42.12 72.1784 41.878 72.3185 41.2989L72.3556 41.1462C72.4372 40.8156 72.471 40.5979 72.4586 40.494Z" fill="white"/>
</g>
<defs>
<clipPath id="clip0">
<rect width="34" height="52" fill="white" transform="translate(69)"/>
</clipPath>
</defs>
</svg>
