<svg width="328" height="417" viewBox="0 0 328 417" fill="none" xmlns="http://www.w3.org/2000/svg">
<g opacity="0.25">
<circle cx="104" cy="193" r="223.5" stroke="#ACFFFF"/>
<path d="M117.995 305.659L117.989 305.656C107.898 300.266 99.6235 292.914 93.1706 283.603C86.7153 274.289 82.907 263.99 81.7484 252.714L81.6918 252.163H82.2458H91.3637H91.8072L91.8601 252.604C93.0001 262.09 96.3371 270.769 101.875 278.649C107.414 286.369 114.417 292.48 122.89 296.985C131.524 301.327 140.81 303.498 150.753 303.498C161.675 303.498 171.692 300.844 180.813 295.537C189.936 290.23 197.184 282.913 202.563 273.58C207.938 264.255 210.629 253.799 210.629 242.202V149.52H134.242H133.742V149.02V140.019V139.519H134.242H220H220.5V140.019V242.202C220.5 255.583 217.359 267.753 211.07 278.7M117.995 305.659L210.636 278.452M117.995 305.659C128.09 310.887 139.012 313.5 150.753 313.5C163.488 313.5 175.158 310.397 185.751 304.187M117.995 305.659L185.5 303.755M211.07 278.7C211.07 278.7 211.07 278.701 211.069 278.702L210.636 278.452M211.07 278.7C211.07 278.7 211.07 278.699 211.07 278.699L210.636 278.452M211.07 278.7C204.948 289.481 196.506 297.979 185.751 304.187M210.636 278.452C204.557 289.157 196.178 297.591 185.5 303.755M185.751 304.187C185.752 304.187 185.752 304.187 185.753 304.186L185.5 303.755M185.751 304.187C185.751 304.187 185.75 304.188 185.75 304.188L185.5 303.755M32.5895 116.32H80.3897V174.696C80.3897 184.196 78.1878 191.358 73.8612 196.262L73.8604 196.263C69.7043 200.997 63.7763 203.392 56.0003 203.392C48.7361 203.392 42.9654 200.928 38.6353 196.022C34.4528 191.097 32.3502 184.973 32.3502 177.616V177.116H31.8502H-13H-13.5V177.616C-13.5 190.032 -10.3547 201.555 -4.06591 212.175L-4.06415 212.178C2.22211 222.63 10.6613 230.962 21.2473 237.167L21.2502 237.169C32.0058 243.377 43.6744 246.481 56.2468 246.481C69.3004 246.481 81.1291 243.626 91.7222 237.907C102.488 232.183 110.935 223.842 117.058 212.894L117.06 212.891C123.187 201.775 126.24 188.632 126.24 173.48V73V72.5H125.74H32.5895H32.0895V73V115.82V116.32H32.5895Z" stroke="#ACFFFF"/>
</g>
</svg>
