<svg width="659" height="259" viewBox="0 0 659 259" fill="none" xmlns="http://www.w3.org/2000/svg">
<g filter="url(#filter0_d)">
<path d="M41.8 35.4H26.12V21.32H56.36V54.36C56.36 59.32 55.3733 63.6133 53.4 67.24C51.4267 70.8133 48.7067 73.5333 45.24 75.4C41.8267 77.2667 38.0133 78.2 33.8 78.2C29.7467 78.2 25.9867 77.1867 22.52 75.16C19.1067 73.1333 16.3867 70.4133 14.36 67C12.3333 63.5333 11.32 59.7733 11.32 55.72H25.88C25.88 58.1733 26.5733 60.2267 27.96 61.88C29.4 63.5333 31.32 64.36 33.72 64.36C36.28 64.36 38.2533 63.56 39.64 61.96C41.08 60.3067 41.8 57.9067 41.8 54.76V35.4ZM71.3388 21.32H74.2988V55.72C74.2988 59.24 75.1788 62.4933 76.9388 65.48C78.6988 68.4667 81.0721 70.84 84.0588 72.6C87.0454 74.36 90.2988 75.24 93.8188 75.24C97.3388 75.24 100.592 74.36 103.579 72.6C106.565 70.84 108.939 68.4667 110.699 65.48C112.459 62.4933 113.339 59.24 113.339 55.72V21.32H116.299V55.72C116.299 59.7733 115.285 63.5333 113.259 67C111.232 70.4133 108.485 73.1333 105.019 75.16C101.605 77.1867 97.8721 78.2 93.8188 78.2C89.7654 78.2 86.0054 77.1867 82.5388 75.16C79.1254 73.1333 76.4054 70.4133 74.3788 67C72.3521 63.5333 71.3388 59.7733 71.3388 55.72V21.32ZM151.518 21.32H154.638L177.518 77H174.318L166.798 58.6H139.358L131.758 77H128.638L151.518 21.32ZM140.558 55.72H165.598L153.038 25.16L140.558 55.72ZM190.496 77V21.32H193.616L232.496 59.08V21.32H235.456V77H232.496V63.24L193.456 25.16V77H190.496ZM329.734 78.2C325.947 78.2 322.427 77.3467 319.174 75.64C315.92 73.88 313.254 71.48 311.174 68.44C309.094 65.4 307.867 62.04 307.494 58.36H310.454C310.827 61.5067 311.92 64.3867 313.734 67C315.547 69.56 317.84 71.5867 320.614 73.08C323.44 74.52 326.48 75.24 329.734 75.24C333.307 75.24 336.587 74.36 339.574 72.6C342.56 70.84 344.934 68.4133 346.694 65.32C348.454 62.2267 349.334 58.76 349.334 54.92V24.28H324.374V21.32H352.214V54.92C352.214 59.2933 351.2 63.2667 349.174 66.84C347.2 70.36 344.48 73.1333 341.014 75.16C337.6 77.1867 333.84 78.2 329.734 78.2ZM389.913 20.12C394.073 20.12 397.913 21.16 401.432 23.24C404.953 25.2667 407.726 28.04 409.753 31.56C411.833 35.08 412.873 38.92 412.873 43.08V55.24C412.873 59.4 411.833 63.24 409.753 66.76C407.726 70.28 404.953 73.08 401.432 75.16C397.913 77.1867 394.073 78.2 389.913 78.2C385.753 78.2 381.913 77.1867 378.393 75.16C374.873 73.08 372.073 70.28 369.993 66.76C367.966 63.24 366.953 59.4 366.953 55.24V43.08C366.953 38.92 367.966 35.08 369.993 31.56C372.073 28.04 374.873 25.2667 378.393 23.24C381.913 21.16 385.753 20.12 389.913 20.12ZM369.913 55.24C369.913 58.8667 370.793 62.2267 372.553 65.32C374.366 68.36 376.793 70.7867 379.833 72.6C382.926 74.36 386.286 75.24 389.913 75.24C393.539 75.24 396.873 74.36 399.913 72.6C403.006 70.7867 405.433 68.36 407.193 65.32C409.006 62.2267 409.913 58.8667 409.913 55.24V43.08C409.913 39.4533 409.006 36.12 407.193 33.08C405.433 29.9867 403.006 27.56 399.913 25.8C396.873 23.9867 393.539 23.08 389.913 23.08C386.286 23.08 382.926 23.9867 379.833 25.8C376.793 27.56 374.366 29.9867 372.553 33.08C370.793 36.12 369.913 39.4533 369.913 43.08V55.24ZM450.331 50.36C445.798 49.4533 442.091 48.4667 439.211 47.4C436.385 46.28 434.145 44.7867 432.491 42.92C430.891 41 430.091 38.5467 430.091 35.56C430.091 32.4667 430.891 29.7467 432.491 27.4C434.145 25.0533 436.438 23.24 439.371 21.96C442.358 20.68 445.798 20.04 449.691 20.04C453.425 20.04 456.838 20.84 459.931 22.44C463.078 23.9867 465.558 26.1733 467.371 29C469.185 31.8267 470.091 35.0533 470.091 38.68H467.131C467.131 35.5333 466.358 32.76 464.811 30.36C463.265 27.96 461.158 26.12 458.491 24.84C455.825 23.5067 452.865 22.84 449.611 22.84C446.731 22.84 444.038 23.2933 441.531 24.2C439.025 25.1067 436.971 26.4933 435.371 28.36C433.825 30.2267 433.051 32.5733 433.051 35.4C433.051 37.96 433.798 40.0133 435.291 41.56C436.785 43.0533 438.731 44.2 441.131 45C443.531 45.8 446.891 46.6533 451.211 47.56C455.585 48.4667 458.971 49.3467 461.371 50.2C463.825 51 465.878 52.36 467.531 54.28C469.238 56.2 470.091 58.8933 470.091 62.36C470.091 65.8267 469.158 68.76 467.291 71.16C465.478 73.5067 463.051 75.2667 460.011 76.44C456.971 77.6133 453.665 78.2 450.091 78.2C445.665 78.2 441.771 77.3733 438.411 75.72C435.051 74.0667 432.465 71.7467 430.651 68.76C428.891 65.72 428.011 62.2533 428.011 58.36H430.971C430.971 61.7733 431.718 64.76 433.211 67.32C434.758 69.88 436.971 71.88 439.851 73.32C442.731 74.7067 446.145 75.4 450.091 75.4C454.998 75.4 459.051 74.2267 462.251 71.88C465.505 69.5333 467.131 66.3333 467.131 62.28C467.131 59.5067 466.438 57.3733 465.051 55.88C463.665 54.3867 461.905 53.32 459.771 52.68C457.691 51.9867 454.545 51.2133 450.331 50.36ZM489.15 21.32H528.35V24.28H492.11V46.84H523.63V49.8H492.11V74.04H528.35V77H489.15V21.32ZM514.03 4.04L516.83 7.64L502.99 17.72L501.47 15.72L514.03 4.04ZM38.52 101.32C42.04 101.32 44.84 101.853 46.92 102.92C49.4267 104.2 51.3467 105.96 52.68 108.2C54.0667 110.44 54.76 112.947 54.76 115.72C54.76 118.333 54.0667 120.76 52.68 123C51.2933 125.187 49.4 126.92 47 128.2C49.88 129.213 52.3067 130.973 54.28 133.48C56.2533 135.987 57.24 138.813 57.24 141.96C57.24 144.733 56.52 147.293 55.08 149.64C53.6933 151.933 51.8267 153.747 49.48 155.08C48.3067 155.72 47 156.2 45.56 156.52C44.12 156.84 42.2 157 39.8 157H15.16V101.32H38.52ZM74.6188 101.32H113.819V104.28H77.5788V126.84H109.099V129.8H77.5788V154.04H113.819V157H74.6188V101.32ZM165.118 103.16C168.318 104.653 170.824 106.867 172.638 109.8C174.504 112.733 175.438 115.987 175.438 119.56C175.438 123.72 174.158 127.453 171.598 130.76C169.091 134.013 165.864 136.173 161.918 137.24L176.078 157H172.558L158.878 137.8L156.318 137.88H136.238V157H133.278V101.32H154.478C156.824 101.32 158.824 101.48 160.478 101.8C162.184 102.067 163.731 102.52 165.118 103.16ZM157.118 134.92C159.891 134.92 162.451 134.227 164.798 132.84C167.144 131.453 169.011 129.587 170.398 127.24C171.784 124.893 172.478 122.333 172.478 119.56C172.478 116.467 171.651 113.667 169.998 111.16C168.398 108.653 166.158 106.787 163.278 105.56C161.198 104.707 158.264 104.28 154.478 104.28H136.238V134.92H157.118ZM190.496 157V101.32H193.616L232.496 139.08V101.32H235.456V157H232.496V143.24L193.456 105.16V157H190.496ZM269.955 101.32H273.075L295.955 157H292.755L285.235 138.6H257.795L250.195 157H247.075L269.955 101.32ZM258.995 135.72H284.035L271.475 105.16L258.995 135.72ZM313.494 157V101.32H316.454V154.04H355.254V157H313.494ZM8.36 181.24H60.84L34.6 238.12L8.36 181.24ZM34.6 231.08L56.28 184.2H13L34.6 231.08ZM111.899 181.32V184.28H95.2588V234.04H111.899V237H75.8188V234.04H92.3788V184.28H75.8188V181.32H111.899ZM135.838 237V181.32H138.798V234.04H177.598V237H135.838ZM195.056 237V181.32H198.016V234.04H236.816V237H195.056ZM269.955 181.32H273.075L295.955 237H292.755L285.235 218.6H257.795L250.195 237H247.075L269.955 181.32ZM258.995 215.72H284.035L271.475 185.16L258.995 215.72ZM311.174 237H308.214V181.32H311.414L330.854 215.64L350.214 181.32H353.174V237H350.214V187.24L332.214 219H329.414L311.174 186.84V237ZM388.393 181.32H391.513L414.393 237H411.193L403.673 218.6H376.233L368.633 237H365.513L388.393 181.32ZM377.433 215.72H402.473L389.913 185.16L377.433 215.72ZM461.211 183.16C464.411 184.653 466.918 186.867 468.731 189.8C470.598 192.733 471.531 195.987 471.531 199.56C471.531 203.72 470.251 207.453 467.691 210.76C465.185 214.013 461.958 216.173 458.011 217.24L472.171 237H468.651L454.971 217.8L452.411 217.88H432.331V237H429.371V181.32H450.571C452.918 181.32 454.918 181.48 456.571 181.8C458.278 182.067 459.825 182.52 461.211 183.16ZM453.211 214.92C455.985 214.92 458.545 214.227 460.891 212.84C463.238 211.453 465.105 209.587 466.491 207.24C467.878 204.893 468.571 202.333 468.571 199.56C468.571 196.467 467.745 193.667 466.091 191.16C464.491 188.653 462.251 186.787 459.371 185.56C457.291 184.707 454.358 184.28 450.571 184.28H432.331V214.92H453.211ZM506.91 234.04V184.28H490.35V181.32H526.35V184.28H509.79V234.04H526.35V237H490.35V234.04H506.91ZM513.71 164.04L516.51 167.64L502.67 177.72L501.15 175.72L513.71 164.04ZM545.809 237V181.32H548.929L587.809 219.08V181.32H590.769V237H587.809V223.24L548.769 185.16V237H545.809ZM619.508 230.92C619.508 228.947 620.201 227.267 621.588 225.88C623.028 224.44 624.761 223.72 626.788 223.72C628.814 223.72 630.521 224.44 631.908 225.88C633.348 227.267 634.068 228.947 634.068 230.92C634.068 232.893 633.348 234.6 631.908 236.04C630.521 237.48 628.814 238.2 626.788 238.2C624.814 238.2 623.108 237.48 621.668 236.04C620.228 234.6 619.508 232.893 619.508 230.92Z" fill="url(#paint0_linear)"/>
</g>
<defs>
<filter id="filter0_d" x="0.359985" y="0.0400391" width="649.708" height="258.16" filterUnits="userSpaceOnUse" color-interpolation-filters="sRGB">
<feFlood flood-opacity="0" result="BackgroundImageFix"/>
<feColorMatrix in="SourceAlpha" type="matrix" values="0 0 0 0 0 0 0 0 0 0 0 0 0 0 0 0 0 0 127 0"/>
<feOffset dx="4" dy="8"/>
<feGaussianBlur stdDeviation="6"/>
<feColorMatrix type="matrix" values="0 0 0 0 0 0 0 0 0 0 0 0 0 0 0 0 0 0 0.25 0"/>
<feBlend mode="normal" in2="BackgroundImageFix" result="effect1_dropShadow"/>
<feBlend mode="normal" in="SourceGraphic" in2="effect1_dropShadow" result="shape"/>
</filter>
<linearGradient id="paint0_linear" x1="332" y1="5" x2="332" y2="247" gradientUnits="userSpaceOnUse">
<stop stop-color="#F54646"/>
<stop offset="0.505208" stop-color="#F246F5" stop-opacity="0.5"/>
<stop offset="1" stop-color="#ACFFFF"/>
</linearGradient>
</defs>
</svg>
